<mxfile host="65bd71144e" pages="2">
    <diagram name="CloudEP作業フロー" id="Fas_ohDHPl9zbsYbTlFG">
        <mxGraphModel dx="964" dy="498" grid="1" gridSize="10" guides="1" tooltips="1" connect="1" arrows="1" fold="1" page="1" pageScale="1" pageWidth="827" pageHeight="1169" math="0" shadow="0">
            <root>
                <mxCell id="0"/>
                <mxCell id="1" parent="0"/>
                <mxCell id="ssqAo3_mQZXptiT0jMXV-1" value="" style="rounded=0;whiteSpace=wrap;html=1;fillColor=#f5f5f5;strokeColor=#666666;fontColor=#333333;fontSize=11;" parent="1" vertex="1">
                    <mxGeometry x="100" y="30" width="530" height="770" as="geometry"/>
                </mxCell>
                <mxCell id="ssqAo3_mQZXptiT0jMXV-2" value="" style="shape=flexArrow;endArrow=classic;html=1;rounded=0;fillColor=#dae8fc;strokeColor=#6c8ebf;entryX=0.05;entryY=0;entryDx=0;entryDy=0;entryPerimeter=0;" parent="1" target="ssqAo3_mQZXptiT0jMXV-31" edge="1">
                    <mxGeometry width="50" height="50" relative="1" as="geometry">
                        <mxPoint x="130" y="60" as="sourcePoint"/>
                        <mxPoint x="130" y="430" as="targetPoint"/>
                    </mxGeometry>
                </mxCell>
                <mxCell id="ssqAo3_mQZXptiT0jMXV-3" value="① 投入オペレーション名の登録" style="rounded=1;whiteSpace=wrap;html=1;align=left;fillColor=#CCE5FF;strokeColor=#7EA6E0;" parent="1" vertex="1">
                    <mxGeometry x="120" y="60" width="200" height="20" as="geometry"/>
                </mxCell>
                <mxCell id="ssqAo3_mQZXptiT0jMXV-4" value="【凡例】" style="verticalLabelPosition=middle;verticalAlign=middle;html=1;shape=mxgraph.basic.rect;fillColor2=none;strokeWidth=1;size=20;indent=5;labelPosition=center;align=left;fillColor=none;" parent="1" vertex="1">
                    <mxGeometry x="400" y="40" width="220" height="60" as="geometry"/>
                </mxCell>
                <mxCell id="ssqAo3_mQZXptiT0jMXV-5" value="必須タスク" style="rounded=1;whiteSpace=wrap;html=1;align=left;fillColor=#CCE5FF;strokeColor=#7EA6E0;" parent="1" vertex="1">
                    <mxGeometry x="450" y="60" width="70" height="20" as="geometry"/>
                </mxCell>
                <mxCell id="ssqAo3_mQZXptiT0jMXV-6" value="任意タスク" style="rounded=1;whiteSpace=wrap;html=1;align=left;fillColor=#D5E8D4;strokeColor=#82b366;" parent="1" vertex="1">
                    <mxGeometry x="530" y="60" width="74" height="20" as="geometry"/>
                </mxCell>
                <mxCell id="ssqAo3_mQZXptiT0jMXV-7" value="② インターフェース情報の設定" style="rounded=1;whiteSpace=wrap;html=1;align=left;fillColor=#CCE5FF;strokeColor=#7EA6E0;" parent="1" vertex="1">
                    <mxGeometry x="120" y="100" width="200" height="20" as="geometry"/>
                </mxCell>
                <mxCell id="ssqAo3_mQZXptiT0jMXV-8" value="③ Organizationの登録と連携" style="rounded=1;whiteSpace=wrap;html=1;align=left;fillColor=#CCE5FF;strokeColor=#7EA6E0;" parent="1" vertex="1">
                    <mxGeometry x="120" y="140" width="200" height="20" as="geometry"/>
                </mxCell>
                <mxCell id="ssqAo3_mQZXptiT0jMXV-9" value="④ Workspaceの登録と連携" style="rounded=1;whiteSpace=wrap;html=1;align=left;fillColor=#CCE5FF;strokeColor=#7EA6E0;" parent="1" vertex="1">
                    <mxGeometry x="120" y="180" width="200" height="20" as="geometry"/>
                </mxCell>
                <mxCell id="ssqAo3_mQZXptiT0jMXV-10" value="⑤ Movementの登録" style="rounded=1;whiteSpace=wrap;html=1;align=left;fillColor=#CCE5FF;strokeColor=#7EA6E0;" parent="1" vertex="1">
                    <mxGeometry x="120" y="220" width="200" height="20" as="geometry"/>
                </mxCell>
                <mxCell id="ssqAo3_mQZXptiT0jMXV-11" value="⑥ Module素材の登録" style="rounded=1;whiteSpace=wrap;html=1;align=left;fillColor=#CCE5FF;strokeColor=#7EA6E0;" parent="1" vertex="1">
                    <mxGeometry x="120" y="260" width="200" height="20" as="geometry"/>
                </mxCell>
                <mxCell id="ssqAo3_mQZXptiT0jMXV-12" value="⑦ Policyの登録" style="rounded=1;whiteSpace=wrap;html=1;align=left;fillColor=#D5E8D4;strokeColor=#82b366;" parent="1" vertex="1">
                    <mxGeometry x="187" y="300" width="203" height="20" as="geometry"/>
                </mxCell>
                <mxCell id="ssqAo3_mQZXptiT0jMXV-13" value="" style="shape=flexArrow;endArrow=classic;html=1;rounded=0;fillColor=#d5e8d4;strokeColor=#82b366;endWidth=7.5;endSize=5.091666666666667;" parent="1" edge="1">
                    <mxGeometry width="50" height="50" relative="1" as="geometry">
                        <mxPoint x="181" y="310" as="sourcePoint"/>
                        <mxPoint x="140" y="309.5" as="targetPoint"/>
                    </mxGeometry>
                </mxCell>
                <mxCell id="ssqAo3_mQZXptiT0jMXV-14" value="⑧ Policy setの登録" style="rounded=1;whiteSpace=wrap;html=1;align=left;fillColor=#D5E8D4;strokeColor=#82b366;" parent="1" vertex="1">
                    <mxGeometry x="187" y="340" width="203" height="20" as="geometry"/>
                </mxCell>
                <mxCell id="ssqAo3_mQZXptiT0jMXV-15" value="" style="shape=flexArrow;endArrow=classic;html=1;rounded=0;fillColor=#d5e8d4;strokeColor=#82b366;endWidth=7.5;endSize=5.091666666666667;" parent="1" edge="1">
                    <mxGeometry width="50" height="50" relative="1" as="geometry">
                        <mxPoint x="181" y="350" as="sourcePoint"/>
                        <mxPoint x="140" y="349.5" as="targetPoint"/>
                    </mxGeometry>
                </mxCell>
                <mxCell id="ssqAo3_mQZXptiT0jMXV-16" value="⑨ Policy setにPolicyを紐付け" style="rounded=1;whiteSpace=wrap;html=1;align=left;fillColor=#D5E8D4;strokeColor=#82b366;" parent="1" vertex="1">
                    <mxGeometry x="187" y="380" width="203" height="20" as="geometry"/>
                </mxCell>
                <mxCell id="ssqAo3_mQZXptiT0jMXV-17" value="" style="shape=flexArrow;endArrow=classic;html=1;rounded=0;fillColor=#d5e8d4;strokeColor=#82b366;endWidth=7.5;endSize=5.091666666666667;" parent="1" edge="1">
                    <mxGeometry width="50" height="50" relative="1" as="geometry">
                        <mxPoint x="181" y="390" as="sourcePoint"/>
                        <mxPoint x="140" y="389.5" as="targetPoint"/>
                    </mxGeometry>
                </mxCell>
                <mxCell id="ssqAo3_mQZXptiT0jMXV-18" value="⑩ Policy setにWorkspaceを紐付け" style="rounded=1;whiteSpace=wrap;html=1;align=left;fillColor=#D5E8D4;strokeColor=#82b366;" parent="1" vertex="1">
                    <mxGeometry x="187" y="420" width="203" height="20" as="geometry"/>
                </mxCell>
                <mxCell id="ssqAo3_mQZXptiT0jMXV-19" value="" style="shape=flexArrow;endArrow=classic;html=1;rounded=0;fillColor=#d5e8d4;strokeColor=#82b366;endWidth=7.5;endSize=5.091666666666667;" parent="1" edge="1">
                    <mxGeometry width="50" height="50" relative="1" as="geometry">
                        <mxPoint x="181" y="430" as="sourcePoint"/>
                        <mxPoint x="140" y="429.5" as="targetPoint"/>
                    </mxGeometry>
                </mxCell>
                <mxCell id="ssqAo3_mQZXptiT0jMXV-20" value="⑪ MovementにModule素材を指定" style="rounded=1;whiteSpace=wrap;html=1;align=left;fillColor=#CCE5FF;strokeColor=#7EA6E0;" parent="1" vertex="1">
                    <mxGeometry x="120" y="460" width="200" height="20" as="geometry"/>
                </mxCell>
                <mxCell id="ssqAo3_mQZXptiT0jMXV-21" value="⑯ 作業実行" style="rounded=1;whiteSpace=wrap;html=1;align=left;fillColor=#CCE5FF;strokeColor=#7EA6E0;" parent="1" vertex="1">
                    <mxGeometry x="120" y="660" width="200" height="20" as="geometry"/>
                </mxCell>
                <mxCell id="ssqAo3_mQZXptiT0jMXV-22" value="⑫ 最大繰返数の設定" style="rounded=1;whiteSpace=wrap;html=1;align=left;fillColor=#D5E8D4;strokeColor=#82b366;" parent="1" vertex="1">
                    <mxGeometry x="187" y="500" width="203" height="20" as="geometry"/>
                </mxCell>
                <mxCell id="ssqAo3_mQZXptiT0jMXV-23" value="" style="shape=flexArrow;endArrow=classic;html=1;rounded=0;fillColor=#d5e8d4;strokeColor=#82b366;endWidth=7.5;endSize=5.091666666666667;" parent="1" edge="1">
                    <mxGeometry width="50" height="50" relative="1" as="geometry">
                        <mxPoint x="181" y="510" as="sourcePoint"/>
                        <mxPoint x="140" y="509.5" as="targetPoint"/>
                    </mxGeometry>
                </mxCell>
                <mxCell id="ssqAo3_mQZXptiT0jMXV-24" value="⑬ パラメータシートの作成" style="rounded=1;whiteSpace=wrap;html=1;align=left;fillColor=#D5E8D4;strokeColor=#82b366;" parent="1" vertex="1">
                    <mxGeometry x="187" y="540" width="203" height="20" as="geometry"/>
                </mxCell>
                <mxCell id="ssqAo3_mQZXptiT0jMXV-25" value="" style="shape=flexArrow;endArrow=classic;html=1;rounded=0;fillColor=#d5e8d4;strokeColor=#82b366;endWidth=7.5;endSize=5.091666666666667;" parent="1" edge="1">
                    <mxGeometry width="50" height="50" relative="1" as="geometry">
                        <mxPoint x="181" y="550" as="sourcePoint"/>
                        <mxPoint x="140" y="549.5" as="targetPoint"/>
                    </mxGeometry>
                </mxCell>
                <mxCell id="ssqAo3_mQZXptiT0jMXV-26" value="⑭ パラメータシートにデータを登録" style="rounded=1;whiteSpace=wrap;html=1;align=left;fillColor=#D5E8D4;strokeColor=#82b366;" parent="1" vertex="1">
                    <mxGeometry x="187" y="580" width="203" height="20" as="geometry"/>
                </mxCell>
                <mxCell id="ssqAo3_mQZXptiT0jMXV-27" value="" style="shape=flexArrow;endArrow=classic;html=1;rounded=0;fillColor=#d5e8d4;strokeColor=#82b366;endWidth=7.5;endSize=5.091666666666667;" parent="1" edge="1">
                    <mxGeometry width="50" height="50" relative="1" as="geometry">
                        <mxPoint x="181" y="590" as="sourcePoint"/>
                        <mxPoint x="140" y="589.5" as="targetPoint"/>
                    </mxGeometry>
                </mxCell>
                <mxCell id="ssqAo3_mQZXptiT0jMXV-28" value="⑮ 代入値自動登録設定" style="rounded=1;whiteSpace=wrap;html=1;align=left;fillColor=#D5E8D4;strokeColor=#82b366;" parent="1" vertex="1">
                    <mxGeometry x="187" y="620" width="203" height="20" as="geometry"/>
                </mxCell>
                <mxCell id="ssqAo3_mQZXptiT0jMXV-29" value="" style="shape=flexArrow;endArrow=classic;html=1;rounded=0;fillColor=#d5e8d4;strokeColor=#82b366;endWidth=7.5;endSize=5.091666666666667;" parent="1" edge="1">
                    <mxGeometry width="50" height="50" relative="1" as="geometry">
                        <mxPoint x="181" y="630" as="sourcePoint"/>
                        <mxPoint x="140" y="629.5" as="targetPoint"/>
                    </mxGeometry>
                </mxCell>
                <mxCell id="ssqAo3_mQZXptiT0jMXV-30" value="⑰ 作業状態確認" style="rounded=1;whiteSpace=wrap;html=1;align=left;fillColor=#CCE5FF;strokeColor=#7EA6E0;" parent="1" vertex="1">
                    <mxGeometry x="120" y="700" width="200" height="20" as="geometry"/>
                </mxCell>
                <mxCell id="ssqAo3_mQZXptiT0jMXV-31" value="⑱ 作業履歴確認" style="rounded=1;whiteSpace=wrap;html=1;align=left;fillColor=#CCE5FF;strokeColor=#7EA6E0;" parent="1" vertex="1">
                    <mxGeometry x="120" y="760" width="200" height="20" as="geometry"/>
                </mxCell>
            </root>
        </mxGraphModel>
    </diagram>
    <diagram id="TswjCZRlH_PuQwlQ0Rxj" name="Policy設定">
        <mxGraphModel dx="964" dy="498" grid="1" gridSize="10" guides="1" tooltips="1" connect="1" arrows="1" fold="1" page="1" pageScale="1" pageWidth="1169" pageHeight="827" math="0" shadow="0">
            <root>
                <mxCell id="0"/>
                <mxCell id="1" parent="0"/>
                <mxCell id="lJub9xmhn4Uc3zOFS6u6-82" value="" style="rounded=0;whiteSpace=wrap;html=1;strokeWidth=2;" parent="1" vertex="1">
                    <mxGeometry x="885" y="180" width="250" height="305" as="geometry"/>
                </mxCell>
                <mxCell id="lJub9xmhn4Uc3zOFS6u6-3" value="" style="rounded=0;whiteSpace=wrap;html=1;strokeWidth=2;verticalAlign=top;fontSize=14;container=0;" parent="1" vertex="1">
                    <mxGeometry x="35" y="65" width="780" height="555" as="geometry"/>
                </mxCell>
                <mxCell id="lJub9xmhn4Uc3zOFS6u6-1" value="" style="shape=image;imageAspect=0;aspect=fixed;verticalLabelPosition=bottom;verticalAlign=top;image=data:image/png,iVBORw0KGgoAAAANSUhEUgAAAcQAAABwCAYAAACAcwDIAAAAAXNSR0IArs4c6QAAAARnQU1BAACxjwv8YQUAAAAJcEhZcwAAIdUAACHVAQSctJ0AAFBhSURBVHhe7b0JmCRVlT0e7Sx/x984i4oOisPIIDRdlZnxIqu6G0RbUJARRNFuu7sytqzqbhZhgBFccMFdFBdmVBhBcUERFxaRTURA2REQlEUEhl32rRsaGujmf86NiMqIzJeZEZFZ1ZXVcb7vflmV+bZ4yz3vvnjvPqNAgQIFChQoUKBAgQIFChQoUKBAgQIFChQoUKBAgQIFChQoUKBAgQIFChQoUKBAgQIFChQoUKBAgQIFChQoUKBAH7HkJ39lLPJebJTt/2fMW/L3xg7jLzUq3j8ZZn0zrcxb/DJjfu0fJCzjLFz8d8bWu/1/SOlFQYIF+gJpD9R1aeyfN7qwP8xb8rdhyQrMehz+ImPbPV+q7QvNUl3yj8bhxdgvMJiYY1RX/Y0xb7+/F1KrvPOfjGGvZij3VMO0bzRUbbUxUt9gjIy/0FkmXjCU8yzkfsNyfm+YztcxON5kjL7r5ZIuSdJY8ldhngUyA3VXrZ9szF+lqftpllG0teU+Y5jLV4SFKzDbUbZfhza/0hhdoe8TkbBvVMdvN0p+KYxZoMAAoLrHS4Sohr25ILCDQH63Q+EGxFetQ3woPYqXUcJ4TCMaJEzLdE83yt57jOGJV0m+h2PGWSADUF+m+zOZeGjrfRpF+obzpGGN+WHhCsx2VLx/AyFeIuNa1ycikb7h3m5U3KEwZoECMxS0BLmcQWtQ2SeCrNaJgu3WyfshkwSJGaZyn4X1+B+yvMJlVir7Al1QEGKBjYiCEAvMGvB9Hq0y5YwbFfsOENOGaSHBtoJBI4odBGm6FxjlZaogxm4oCLHARkRBiAUGHruBCGUThn2wUR1fY1SpTNlhNR15YwkH0OhKEKN/hWE6bzUWTrysIEYdCkIssBFREGKBgcWiw/9alkYr9kcNq/4UyLC14840kSVVKHvTu9MY8ncwqqteUhBjHANAiHwvvIQbp9huWSQ3NGl1EpRN/+56jj58N3kB8TYacpZZJzo0/V6qbwWiuzQ1IZbGwk018XR0ooMunE4y72QN62wqkShfgY0OEuFwbXd0zMcHggibhQNqBBaj5Z1lWDUL7P7X4ZNt4sAAm+mEyCM4lrcQCnEno+q9OZVY9s6GGtsyTCE9uDnL8t+YOi+Gs2pvNIaWvjZMIcC24y+Vfmb5O2vjtROmp5ztDWvpvxuj3r/Is299AI8aTR14zKW6/BWSn7K3xudbtGVLK3xmy8cYawKP91TG3jBZt6znEW8Z8rw+FSEq9z5MxusSrznPSCRtd36YYwOl3f/ZGHHeqo3TLJUlZhirDWAYzHVejvbd3Jhf2wLPtQCWa2ueebAIeom6lmlT1LJXG2ZtdLJso+6bDPXuLSd/L9uvNBYe/HcFUU4XODOnklD2lcbI+Hp0Rn2HHRQRixHEqJx9DHPxZkVHGgBCrLivMaoTPzMW7BNY+2mEYa3xbxlb8FhOBlQnPmEs2Fefpk54XEXVrzbmOTuGKQSwoCSr9auC4yyaeF1lRZD2yPidhmkfAsKaa1RX/WOYen9AIhwZ2wpEs7ehvNskPzn+oCtPBhlFOtWJS8JcGjDtCtr5yWQe4W5xXX9oEYSTDXSxvJqFr0lGxm8Kcwwhffw/0vWf8Q3QDReHEZPY0nuxLPFW3Peivq5J1JeC9ZobL8wRYqs6/2qYzhKQ+umSJtPWtkf4PUXV1him92mUCxMNECQ3NhaYIvDgfNnZA50EVmGXGdygSbAr9TJRXJs0KQ4AIRKWc2gQLsOErIo2rnifDVPojopbR108l0lBK/cFKLPPhCk0oMZHoDQv7301BXkwDZnEeWcZW8F6oKXVCzjJXbTk72Ft+QGBoO1TP3MKCZ65lRBHxofxDA/3Na9moZ5SbishWs7bhEB0cRLirkf8X4URQzA+LHblfnSSoJr1oeneGAbOAKQ7vOxVsJpNpP0Xw2qTdkeJ+gfiKe85lON/DGvl5uj3/xRmUqAv4BKK5fwUnfjZTEpokEQGj7MeiuFdslSxSSInIVKp9VtGqAictZj1joeFS8J0vyATGV15dCJKwjnLMJe/PkyhPfhuWXlHCUHo0tJJkP4p4nSiGX0jxJiINTX+GCapnxaPT3nAd53V5TsivYvEwtHl06vMHkKcIxMH03k72nlDxzGSjRDnGPMmXgaLEO3g3CF9rl91IuS44nmU+WdGqbaFsdsUL7dvEpgH0115j/Z1ME9KTAFmlSkhZqTJJR7lHWBs1eclqYFAHkJEnSn3ISiPW/B5W9/EdO+AxX69MWK/JyxcEqa7GO10V6YZNAnUdL4SptAeyv1gJjJkf1Tuk7DWDglTSGIqCFEE+bKtTPuX4vIsG+YYVUz+LBdjO0t7Z5TZQohcquckbP7e+L5LmVMTIsrCjUFcFp3fRyJsFtbD6MSz6Cf7GnNrm4eZF8iMLZf+m6H8R/tKPpOEhr+VuxpyPzoElJ93SypR3q0IfxfiPQxZl0ivX7IAnZ4WQrARY2Pu8ptm5CBEWhbK2ydMYHphuR/ORDIMq9xrjcrYTmEKrZjrbIM6+EWmOhBScv43TKEVU0aIoXA52KyfncnvaxmkoLwnMk0o8sggE6IKCXHUeTk+z0w9SUpDiLJ5yZ0vbZerX+SoN+nTzt3G/BVbhKUokBpD3hsMNfFEX8hwkrSkg/0F34Hc3EsghxncRceliCyYu3Jzo1Tb01D2cUjjD5IeydXyN/RtgLHzK+80zPqHkeMmQooDRogVz0QZLsxUXmlX/+thCq0wnY+nsx5CEaXr3Yl6Wx6m0IqpJkQK0644ZyG37n21goku21n8xWrS6qcMNCF6z0E//R5pHJtpeb4bIfKdXsXd3xihtamJ3102QO+t0XyfQljf/jpMoCphaQp0xTx7Z3SA3slQiFAGxAPoWH82KvZZxtB7R6fEAbflfxjK7HLJx/JgOfZh5iuDxr0wJMVNAANGiIRyDw7KkrKvsl+Y7r1aAqu4O+H7P2YiLlHozhFhCnpMByHK80NJKvuTYa7toer1YOetLp0+yyATokzgnSdRVs1vHaQTIfIYhfI+J69mdHFTifMMSPUTPem40RXPwqhoPQ5ToAnDy7dHRfdGhtLJpbHuRYf8PxDKO8THaTO4eYXLEdxiXPXmYtYyr6ts579e1vO567XdoeWycwLy/RPyX9MzMQYWxU/QebYNU5/FGEBC5Lk8yz0mk1UXtOl3jM33eEmYCoBJmrwjSrksRpF6ci+WnYGdMC2ECGF5mM+8xVuHObfCtHfAc97f87hIKwNNiJQc5WtHiJuvegnyPrQ3MoTIJQnQp1mJulnUOP09FzeGtMXQ2E7oRFx61FdgV0G8YKA9ANL6A2Yxb27Zscm1c+70I7lZ7nvReb6PTnsD4j4niqqTUPmazmqkfSnifCo42IsG5bkddvRmKOcTGHTXoDzBu0ZtmVOInKXyTmk5cD3rMICESPDIgHIeS9/GCMf3QxXv0DAFbtJZjv6YPQ3T+3iYQntMFyFSWH7lfCfMuRUl/509LNVll4EnxByiI0TqPR7l4XjRxUkv61D+I8R3tHIe0fyeTar+Otk4WaAJQ7VdoQjX5CbDgAjXYfZyk1GpvbflBT/vOpMzNrVxKJ5HA5JDp8x0GBfCsMyLSltIkoO7fhI6/p7Iu4J8Ws9lVZzjMPjuFNLN+3zB7rLD8Fyz+LDrgBIiweMHWcrNvqcwyeFkim2q/GOlP+nC6kTeKTknpFr+5+YJy7tS4rDv5pG0/ZZ1UPV+LWcUm8HjJKb3oUzWka4sWUTqqd5KiMoto/6fCMZ/LHyW8RmPpxPpD/WpJ8RIJ0Wi3D+HmYVAnkOwzPuxTK38JyRJIdhab8umgWxAeW/I7LRiVoOX7PZkGcos8B7M1L8ra+RxlMa2Qrol/HajDA5xmZY3nzbCQUVlpvBZdj4mCojXPsU3GJj+KBr+HOSNGVbO/Om1pDp+QHAR8WzEABNipba7KKIsVhg3lSj78/h7VfBdyn4RKL3HjGF7/zD3zpDlfq6EeNdDrskoV0Nugzyfvt+6sFLGjg9zb0BhnCvn0XQTUIQxuQscRK4vV1rBM/utFivdwin3Avx+bRiOz3k98n6ytSxawTiGJRbEa84zEMu7Dp+nhDmG6CMhsh6lXbw7EvlyDMVBl3ume3duvRMX5d4Vpkoj45WZxmpbqT8vE6UCQMl5KwilN8uwjI457GyfmC2r8S2hpHY1TOcmdL7puQqKHVSsTio69xsG/Uo2+34sOd9C53winVLQyHykr7xlMrBmHQaYEAnT+VCmfhaEvQ6Kla4IW39vJxLW/XKY69SDKx8kj7R9lpOCcu3UMHYDI+N7GvPTWCnIx3TXGiX7S2HM6QGPOXETW7c25O88fsXdspnRL0L0n8fkAmWonSavbtpBLDlnZZ8s0nWY8DeW6GVlw3laEy6H+M/m8vc7qzDP3g2WFWZkeciBcSBl50q5/ikCOwB3ZZrOFbAI108LEepElDqsxgpm8ZyNxjf1VOyDoWD+JJ1aF7eT8HlM72FMAEbC1GYRBpwQy45Cu16YidzYnln6KNPmeylapNMJvm4w7UtTtU1A2GcjVnLTGV8rpHmHFTzjhWGs6cO0XP/UD0L0nzNU7VdGye++IWXIf62cNdSmk1nWGJXFrwlTjsj2s33SsVw6PTdMeRNEaYyWYQ9k6D1jlL0Lw6XJAOLNwZ4wrAlYYBmU0pQJyhm8F7rOKI/tIR0ogrl8EWZXl8lyQdY6YJqm+8XEs88KDDghEqWx90FJZPBBmlWQrvI/FeY2vaB3njReZYIJwW+M8l6vDGMGyEKIltfkw3MaMAiEqEiG7mlhYp1Bl3rK/kBYn70LnZg0Qwi3X7q2/qyx7Z6vDlPehFBZtrthjT+VmwyVuwGD81gx2SPwPaFpnwNlmn/jylQJO4w4Xh7bJ/H+TywK73yUN3uZF+7HNOuzy+9pDkLke2EeXLa83Y0qFXYPYjljxkiPx1v4XkW5P8j0DGmFabK/DDnbhblNL4adRWif7u7qqIBN71JjG/t1YcwAIyTEFDtMJX33DiHg6cRMJ0TZmeyeFybUHbxCq3/OD7i79Athyg1QB1ectZrwOQTPJxvFNiUMOXugM+QnQ76wLzs/kDveInA5Z/7Kh/s2E5oKqUIWgMRM/xBj7rteHpY83PSDTi7LpxnqhIPSdO6bXYdbcxAiheFpNfcq2+9Pgm0chcgLNeYEm0f6spQUCNtbuU9D+fRePu6EViBVtXx7jKUd0e/e2F3qC5D/3oh3e3fCkAngZdK347D8twVxU/Rztml14lr07zdKOeX8IiRe3mp9R5Rnexn/vBauV8xoQmT7O/eg7ZKTjLZAPmU6OOkTISr38TDhJILjF0cHdaKJl1VGYCVuMhhe/nbDmshPhqb7rKHsHwaH4kPwXZrlPZIvzY0g3PpM113xM4VqWRkdjrvS9HHaCZW4cj/ZsrO23+CWaLm0FQpgSq9yyUmI/RLWpxU7G5gXvNJIuV8Ntvxr8skjrBPT/VEOJ9oNsO1KvgUr8wAosRtQxiBdLmOmEVHiKcZZO0KUO/bwDGnbl8Qku8KZHv7mLm7+P1ke9n+fbsQewOTweCEABX0QnyxnwUwmRE6GlPvfYSLdwbY27fO7PktaMUHG7cD67h/xPmcMv3tumPIsRsXdqycy5OCt2MfI7DYCd3Fa9UchmjgzWOi823K/JduhI/AyTs4As9YPlYTp7xCm0ht4wwY94nD2rcKbypXzbsh/GaZ3PNrw28Z2eZRAWswSQiS4ElLxbunL+xUqNdO/zyg5Xph6drCvVWxMnvzHhUx4vRVXLXT59SrtCJGo1PaS/HXx8goJSogd42qkfj/y/qjBg/dZMVMJkfkp/25E7u4nNgLvNlT2em16lhvsuk8r3AFasb8RptwKLpuabuCVK4twCVhXNtNp3aE8qzCMQTCyYm1uMuQOJNP+fuKdYWnpG6HAMnj26CBMg4OYS67dhA2Z6zmahJZitf6hxDMNux8EueOZmIcmjk5kYLlfgPLpvsGGm3p4kzXft5ZqC9HxFsng5GYHZb9HdoxVnCuhXJ4R5RLNwuVAb/0BWa6KsHXtHyS9vmIWESJheu/P1JbthP3O8o4OU82OoaX/blQnfiDnWPvRd7tJJ0K03J3Q157uy7jVCtIVC3Lln0RHsL+nxUwlRJ41rLhnhgmkg7w/lP7clBZIiOdllXMiPk/rKqbzc7HqSbDtwB30pv1hhDtdm0azWO7JCHsynumJlvJRKprNO7MGJENrIj8ZKi6Tut9NEIe4TBvv/VooITnOVLxHkQe9yp8LOUcr3EYuG2A8dCb3mYAce8yfG2NG3MON+SCXCLQc5QV2hrR5tsv0dwlTSEIGub8zhNft7IOyfxef16PTPY5Z53oZNBHxiScTKt9Y3qKMMfhHec4zRGBtvKv/LpdmGSFaNQvpZbsNo1lkJu2gz9X2DFPNhrKzDSYzP0+1maVf0okQufRu+l/VKut+CuttZMWTIN9jE0cFOmEmEiLzUt5fMo81NbGdtt/JTfbOL3vePNYT6LfXeSvGup4QTXddGHCWoTy21LBWPJ2PuMI4pvM1cfkUgUt5qv54vjQpiBdZg6b7WwwYzlgOMcpLt0nlBqsMclHul6CkTkHZ7sDgeT4gEV1eKWQByMj0JiatrUWLXoz0r+06KOPCjm8632yZxfGgq7J/isEHgoWVTQcFdB6dlsyZbuCkvBqmCCtz8cvw3TegDD5vqGV93iI9ywiRqNir8EzP5Js8sa8ynv2ZMLVsMBdvBjL8X2N0GsmQ0okQiYo7H3JHMNnSxO+XSN35z2JsnN62LHHMSAsReZnerWHkdKAzkIq/f9v6FX1VX4Py7yUTlGkDnp3eikzva/LaqN2YoBH0Ko0LzIHGEMhwZGU+Mgw6HI9WfCfxznDI3QnWzONtK7KbRMSl3Isw4z6t587A92umfQIG3C0YRDmPeyCO6T4tmx0iyNKpn9LFFYSK3HQuC0g9BJeKeLko0+AAr7h/RpgzUOYrMRjWCumIoE6kXsJw/J/fM025Ob42GqaI2f2SfzQqzlFBvPqq8Ns+YhYSIo9hVP0TcllEUg/+5Ua5viBMLRu4eabXmw3ySDdCJEznnSjfNJwXDvu13Dzf5naaCDOREHnErOz8NoycDtzkwnf+HZ8DzzCy4hm0w9eMUmzCO2XAc3NVyXQf77rZjBtrqqumkainGmV7mWFNPKN92K6Chgp2kx6bsAy5g6w6nt8ypHKhhw8Fku33gXZr+dtQ5h8hn6dANvr8OwkHh+kfk+gEnNXqwjZLQB6wKL3Gzqy5IMMKiIWz44hUuazKTTLlxa/Db/+D8v4Cg5pr+hfg78vwN6/KYv1gsuCegfzPSyji6iqS4ZFI7/Hg/af3rvCXPmIWEiJR9ZegTu/rqmjjwnZT7lOQg8NUskEu4fVO6qp8pkLSECKVNjdrWd7q6bEUvYdQps6+X2ckIXprkU82N33UbybGcTT2O8nIBDex3IGwu6BsU3GmeY6xAPUqFxKjXtOUiYS4bb9XnzYWlOMY1R7IkJ+m+9XEAXartrt4n8lLhkI4UPzDyxdN6UF2yz4c+TyUSfFFwveJ1nhtsnwsq+V3PvMVDKpLQaavlziEXG3lnoy4yWU6OcBuf8mY6zTOQBKlff852A5vn4FJhxvcUtC0dExLWpEMww0/fOdYEGJ6DLn/jkF+WqbnYj3zXW8ZyjMPeJ1UJofcfZQ0hEjwLlJVIyneInWfRlnmFVn5GL/J2HbP9u/OZhwhIh8FIh/CRDYLSIgV5zddnyMShhtduRZj+gCjnGN3bltAj5SdPaAXTw5WKlK2LwmRk/qBx7BdEzNc95DdhJ0s2AHVZBnC+hpdldMZNuLQ1ZRyLpDBNx0w7X0xWHi/YjY/paIAYaFxE0QE5f0Yaem3Tovydn4PsmpYhqXaFnjW84O6aqovfmfCSuGtG83g7lHT/QvkQGORZpbIGxmq9ScbAwyfpv/28Nc+IichslyM06vQcUI/DuY3w3Q+ls9jCJR42ftKmEo2VP29p3UjTVzSEmKEwAPOpYi7RtpB+lme8d5N3A2inNthphFioBMbt0ukBc8gVpzzuj5HQpDXyMrnoXMuQX9dFKaUHzvs+VKjUrMNE2mzTbV5tpFZYSHSuujFMuQyqcUNNLFbxIfp4s3v4VooSNk5RWZMmYHZTWCtpT/7E8G0d5HZvcVDw5oytRMqMO4EjW7I4No+Z8/NHTvoYFckLEP6FBTL0GsskzYLN1c070YliVbcy4OJA0nReWv4S4B58/7WGKn/erJTsyx8H8mNEX1HDkKUunGugpwAJXVST6LcXxjKf0dYmP4gcLrQqL8sEiwlXou63ilMLT1o6QYWb3dhHbJ8XQXlade34pKVEAlu0DJrH0M87uq+HeNgvTil1pYjLhmUvryv9P9ozFvyL2GuScxEQqQLu6yQ5WjvuK7PoRPGUfZqQ40tzac38XzUDWbtCFmVStNfmoWEuHXsjPbAoWxPoPNyJ6P+ATsKKowHhEvOkcaW3ovDFGkZvgcz5PzXQnGw6O5HTAsOZt5KEb9JIwu4acD0sh20Z+epuA8mBpqqXxYM5DAMlVzFpVPzhrIZ9uaiE52GvDrfzM+lzjghUgHILlsv2BAkXkG8s/C9GYYI6kGBfKMySL0iryzKLjVyECKfaSY5925GxflcT+/x2N7BfX7pr/ua5/0L+t/xKfOlpxd6rfkO5IdthRMOvltW3v1dlVweQozAI0jcrFaxj0I/C/Pnmblmke9/ivL8Id3yI0XKvQ7xjgtzS2K2ECJXebiDNMs4iguff3TlU7LcmRWczHMDUy+bubjL1Phm43aggULJ9lF5+ciQDc5dVJZzdOKdYam2JwZzTjJEHBmQzqmydJAXFSe4DXo0toSZFWV3X6TxSNcBFhdZ5qo3OiLLwd14/C1Yh4dluLxhGfJohenQQTh/a6Sjkzgh8o67inM24iRvZgje5fxCBhT9FFq1hcj/+sln4EDmsZO8E4WOmGWEKEuB3jU9bRphvSvvTvTnpWGq3THffh3a8Cdd6zEYf2vQf9Jdzir+T91zuz5PL4SYCYv+GmVfhLwuSkwaO4mU3b88TCCJ2UKIhBzMTztR0MoaY0TzeqUbeHzMdH4QlF2bbndR3pNhagOGkrOyJ8tQOc9CAX5ZrimJMATLcGQi57VQEDZEGbNH7orsBaZ3c9ChenSebbrHYMCmP34iCtC/QAZnBG6cCWZcv0koGTr6pZujahfLMBJ5HvdwxBlD3d8QDHxNPCE9n7vyPo+Z+qfwefdk+mKxOAeIMuo7ZhEhbrHw71Cuo6W+dOXOIpJG/VRj+B3pHFiL5e/9uDshsq+592FitDKM2Rkj9jD6zwUzhxBDlOpbgZzOS9Vvgme+GrFaLe4ZSYjeRiJE94EwpayYg3avdq3DTlJy/y9Ma4BgOvv1RIZCiPZnE8ukJShqqwcylJ2UznEJ5995wHcMyrsrWHKyP9NTenwnOjJxU+oZLIUutujJPwJnwGX7/ARJUjmZ9i9QV+nIkEJFpjB7s9xvGyP1hwIFookbKLznUAcXIY+TEKexTEYCqrjvDUvRZ8wiQqRFx/vjelEMk8Kxwsmj/eEw9c5ITYhMF2WsuHuHMTtjphIiQf+7aTYuBe1xo7iza8ZMI0SKcv8QRswGepNSbj5vXnyHx/PVecGz47n9S7vrYdB8MUxpQDDs7IPO96z+gbpIoFh5O/JXm8hwiVHt5fZ8DELT+VHud4ZxcFclz4CJwnAeTxBRHtDZsCx7pnw2DpZyzHsNPdlw00wEKhqeH6xy006G+koumU7g2X6P75ObcGSg+jfBMvy8sQ2PW4xvj+9DazJMY0qOXBCzhBDn7rU5ynaSeAXSlTmPBJOX88T5ejdskoQ4VkJ/vrU7meF35d1qDMUcTkSYaYQoPkydfLfICyk5X8k0EY9EuauNyrLOz8YbXdqBr1rK9ikJvZJa/OcS1+PNeJSdA2DF5SNDKm/OPpT/+cmdlAQtw5F6zpswKOjAZef43Ne+NMPyrppMm+/04ptM8kK5V6buINKJ3bPlfGAzuLOUDnfTLpPGJU6IxDx3Psp1+eTvgdLl4fw9DTrsJczaPPx/9eTAYn0UhNgZXFLmvZ25+3MbESXqHhPm0h6bIiEyr0qa95shIeq8/8w4C1GOof0qjJgVc+R1T+bNLXw2/5EwjVZQL1RcG8/wcdlBrcccY66zTWb9ROGNPwODSu0gkOFz2gfpKlLRHCifnLR8iGG3Diskp/NvCJc1y+43kGbD+Xcv2HLRi1GW2ycbk0qlUvtEz+mb9lfx7OlJnwOm+WgDN8Io90yULTsZUmQpdiJ57ELV3oLfbhZFwnedvIYqftRELpMNlSDzNJ2njZL3lvDXPmMWEOJckIbyfpVO4WUUIRpY690O62+aFmIVffORruNCyI7HhsZaJ7mzixADxwc8tpVFt9Iq5a0VOmy+x0ugCz+CMm2A3kXZnAswYV4e/pqEWKia9DuJWMRj+TwzTTtKzkEYCPnIMOik9Ml3RMIyLI85INj8dyQGSvy7fbMMCWV/Eh2xscM1IIGHZDdnL9gO8S239UyhTqjkeUsCB2gEWoY8dG/563PVl6TJHaqw+Jph1vbDMz5lVOwva3ePKucsUXJUsLRO6XllSjALCJF9PNMxC7ZlhvaUDTYTJyZ2ZTdj0yNEWEPOWKol6sBCvF578Hu2ESKPX/AIC89zatPXiPJWG+bipI7geWyerRY/xqjjQJ8H+tdyn5H+U97nlWHoANTzFsqepW9zom/M6/OVclOBsn1IT5ahcp8XouHacoTh2jg6HixDXZwUIo3iHN03yzCC5be+h6ASinuQyQu+s+s22IKzgD+XA/MR6KeUvk3ZYfKQoXRi79fa9wLyLuDwv8XM79yY5ZF0RlCq/UjyZT2YzvsT7dhXDDghVtxdoQRu6EoYCWF7ZmhTITHvIfzd3rl6akIkOdB7kbsijNkZJACFftTt+YKJ6iUYm32+HqwNKsu59H9117FFCcJcFcZMIgsh0vH9PHvrMGYGTCMhEnTVWLbvDPSlLo8mYX+Ig6t5cfd6LXGQ7sgKcINzPPrRf4SxgBcwSakvyDAW1kMHHRlGnsFQ9gcNiw+sfYjOEjWCsj8qFRtBOfsYavzplvCpRBqAaR4lZnkEZdcT/8dRdZaIIq/Y+0Pe10FWoUNA2TR1HjZq2fkC0thPE6chFqzoivtRlCM5W4pgOj9B+u1duolyd09FGo372yzfwsA4G53r2UyKMxK+QzDrv0b9NAZv8L6ljrw+irS/IO90lXsNOvRJwd/eJ/C87wcRHijWYMlbCAv1OllyNd3FYSpTgByEGAzSg4wXQOI81N1P4e7i6F1qN3BiNjJ+XCZ3aXxOEwSj/F/olU0boTKtjv8qcR41Dp5DtLyfprIQLfdJKLxPBPE0dRDJbpgEiZWQYpVDfnf/aFjLdjZ2g6XA+KzLuA6IwO+4Ea45v04i7bL8FeijO2LcfQD99azU9cexXB2/LMw9CTqhrsKyTUeID8lEYgnKrytjJIuaJ+zTTIhyeS+s5zQ7cMX37eRy6RxZ1eIGQ6mzLnUiTsLdO9E/GqsNXMUweberJnyzKCdJxDMSZfvDeND8ZMi1Zh4sjw+E0thKozqR/45ENg7P9sUtQ8vZAw33bIJI4lBQ/qZ9DgbNusnG1UlHN1Ad4lFIPMp90CjJzf5611By/s/Ve/oQReqfZYzEd5OOb4vwF+D7XpZJL0rsTOSdiRXnOKO64kkpMwemKFg8AxWo/A/lwr/pzs10zwsmMO5FAWH77w5TmgLkIMTgvdpv8ffXIP/bN1H+sXju/zbU8sbFyJ2gPAfysLZtdSLjw+OheA9ttDP+vkfaQBdWK4zvfj7MPYksnmqkvO6NkP/G//q6oCj36yjjOZDWNFpE0nwS4/L8IB7q0vK+EluBCMDVCd7AYnnfg+jz1Yp/DNKkZ51rZTyn7i9S509AgglAM0aWvhZpniN9Shs/IfTwcwfS/B/8rSmjyHGteU0zIRJyHZR9Utc8ubt0yN4hGIe15fjuZGM+47A9NeGbRXTIOM+WH2YML58bbMCRlS19+EhU/TlDjTlhaWcoaOlY49kcVE8KOx4as1Q7LDHDNpfvl98ypCBdk1uJY86/abEo7wEor3vk7E07cDmE57iq/mpR9NLIzaLLMy6aOGzsoKP9CmVw2lqpxDzZsXlbi+ITMvV/LHcYRihzc4ZzBtLPv0xKN2x06xaB/iKVczTyRx2kUL50qceZJRUOBwvfRZj+O8PUpgA5CJFCpShE3kcJ3kdhMjjW/d5HWtxV7/RMVp6scqDNF04E72xV/YvBBEYTVid8ZuVdjnGq9ylbdT6UujwkAF0dNItMkjTxtYI+G7WLXEo9sVpug4mDE+WR8QPlppfmvNKI9OEMY0OIzr9K+pkOtFRN9zOp+x/z15UrErbn6MRNYeohNgIhEjL2YbV3mvSb4WH8svNpWHYPZx6HkYiTcEwsuAo17Ix01DXVieeNci2fA/tpQ9n7uGGtyE+Gwez3AwkytJYdZFj1/GRIBWLaX0yQITflmN6j0nCmc4IsUXQDFZzpXScNkYdo4hINeG7sCTaadHYE/npYsMq7OdFBAqvrpwky5KW8yjk39zJpkOYvE5sa5jn/inIei7zXdOyg7YTKVXnXYrCoMMUpQE5CnAqRWa0DK2fMDwvXHspGX2f4lG3F+je9OzG54I7eAKa/A367UvqULo5OGJarJTpszNsumkXqxn0MYzTpIk6WS3mJcYaJRG5BGRQ3gNSODnPXg+/BskxMOgnbmTfYJLCRCJHWuOXuCpJq5/x/A377C8b4UdIeeXREXKRv8i5H5yNt8kOYOm/yOaHtBGVGoDT2ydxkOPngMJnjZDhcOwAVnP8mDCpIHuSPk6HcVs8bt/m7VP4RHa2zOMT/oXecYU2slTOM2ny7SDCIb0A5jjTmhbP8bhh938tlgESdLVgmPRVWc2PH29DEdlCwF+L7nMukkub5idvzR5f8Cwb6t/GsT+Xq6DJ4/ZulznXvgfqGASTEKiw0y7skU5llAidElpxAWbUDMxMij8zw3GgzlPcefP9kW2U0nSJl2MiEKNZh/XpZFu2EEUz4srRBJ5lJhEhw52fJPhjjGKTYogc2oM+sSVeulBLpZt1vI+PM7/yZfQi/bH8m9zIpH1456zHQD0mS4dj7DZWXDCFsON4YEN9mznu2+BI2Igx29iyESPBi3LK3D9J4LJMyk0bmDNI/ETOqXRPHSLphkhCRhhyY9b+HMjc24PBslJwzrOdbJg2WXk9NkGFlMaxS55tIM6dlSAvY/yOeNXD2PaUYQELkRC2LEqGCoJOGobE3hCk0oBZvjTCnZSKIoK5OSlybRtDLkOkfE/QzTbzpFKnLjUiI7Pcj438xyk7391R8x6687/WlD840QiSorxRIke94W8gqh87JI6MTfK7TDJ6rnrHgrRXWxPNB59U8RCdhHAWpOAclyLDCHapU7po4aYTv+kjScTJUzjgG1uOJckrHc76Xasm0GfS6YDqnoIFSLOfyOd3HMbCOgiWd/a4wWTJ1b5bdmqr+Q9n8EKFUW4hynIc8elgmrZ8p70ojcJcYLcPE5b4ZRAatfz0G0DsS7TplGDBCNMfeifa8LeUmjEDYDrwwuB0snxuvVqceh5Ke9xAmia1nCS1MYniuLE/b91PkWTYSIcqzjz9slGsHhLl2R9XZMZywJtPKKsx7phEiIbfYjK1E37hiWqzzSNgP+H7R9L6SeJ0zI8FdbkHB10klpR6QCGe6PJbw/sRt66XaoVAUOcmQFQelWBn7fIIMy/5SDKpWZSFlcO7quKmmE0znC+h4TyXS1EmQz2O5G5ObakZW3IuBcrJ4o4/ADTSm8xs8dy/LpL9MbMPnO0nlfAd5rc2lEAMyvBHleuf0kCExQITI21SU991UOzkjYZ1W62fDctMflyA40VLj38z0Hov1ZfpnG0NNy4Esoxym3sj1KXW5EQiR/X5kBfP9eJhjOtA5BS1/2WGpSTetzFRCJPhOUTnbI/0fBP0yw6QujzAPE8YE95YYMZ6YsYiW6WSrufspWE5Py2BnZ+XDUDiw5Lvoe3ZkHq2w90+S4fKP9GQZ0pRnJ447/xZn1N4DnQkjtjElCyznOn16OkHZ0jhY1sF0D0Ren04sk/JWfJN+S3tYJuWSGZfbIvBQv3K+hTR7sAy9a9EP9pzad4bNGCBCLPvjMsAlnCZ+szCcbPlP4RWmUtsV4f6cXklJ2s+gPIeFKTTAyRs3bbGfpN4h2meZdkJEfuzD1fq9hllbgXyyO+/gOUfTPsYY7WFj0kwmxAh076acj0BuDXR8n4lRxvI43cF93VD2sjDXAQAtQ3YkHs5mow25LhrkQAwm3tRwJORoyDfw+zEI+zV0blhVqEh2OLr2iVCufSw/GSJ/HhcwkUacDKlEuFTZSflI59O4Y+oG5mN5d6VWbIFFsDJRvrTgDrb4BhyecQvcsT0nz67Lr5MEVsTpCbdygZeS7/a0gUbV/wCL4+2JSc60YEAIkZa48s7MZB2yrarjJxhbvjPdpdUWJqVZiIJ1pvzL0W6ttzgEbv9ODSa0fa5b9jEhnw6KdNoIEfmwTaoT3N14lqFqrZuNssBcvBnSOU72DOQhikEgRIIrQOXlbwNh0W3l76WvSj3m0B+UqE/I8Qvne5ig72dstl9/PYpNLap/gwcJSIwP07xRhB133uF/CyVwlGwkEd+hmus/SGRi6TRVUFoRy9BLWoY8sKmc1V0Jgw043Nb7enuIP1UM1nj6HMBMj+Vp7hT8zXTuSbyrywPlljEwfgPiynf8g8ukvNk+7oGGG2hM9/so89pACWnidRIZpP4fUa49pm+ZNA4Sog9ClHJsXBFl5jylJUTlflDqV/pGUzydBMr0Zlh+u4cpdAdvKuCF0FnqgqTEpT4daCmatcPw++WSJi1G6d+adLqJKDyQGMX0bkU9HY2yXiWKlN8114vUpfe4nAOOY5IQES8ePovwGaQsTAP9nqstFdvH9/lWcZpB12dyJtu9WCbrUm8p213aw29DiEhLFych3nromvPCiFMPGjb0/mN5h6JNT8QzPzhZt0Jw7C+ato23AY9SmM51sslRufvLJqWBw9yl26DwwZVOfMDyMp41S24J55EHy12NDneZdmdl2dkHgys/GfLQd2XsA4mdjGV7X5SryzJpKOx85drXMi+P0Im2eJ0I0xHlhVm06R6O8vggnJuM0YkNCYJhw/O9X17wMLVyz8Vz5dxAg86n/O8lSJl+Iyv2d9Ehc1qGMkCvEqU9rcukccwwC1E5a2FljIeFC2Au3QHK/YpMZWTfrDjZ/TRWoFAmlY8m3Waholbe/8ndojpUMfFVy0bwXNxd/RmEvQaSbVc5wyvvNvS/Y9GH95bl3a34rtJ7A9I9AL99Dm2YdD4hdcn3R85HwpIEYD+zvP8M+l4sj7SiPBLgpfg8EhOp/fDcnqEmtgtT7x84OaQLRbYH3R1S4cv1XpoyxYV10IuFSOcmZef8MOJ0Yg6e9TWYrLxL2tT0D0RZvopnPg9yR6OMYsH+GXIG2v8D6BPor85Ko1zfUfrawIJX/ih65eBDovNy7Ty+DEqUnR/ggZ8XzyWqdmSLBVF2rkf8BrFkESFDzLqbt/WXnZ/g9/Su40wHBJPxPWLVv2OS7ALvJJcbJffgSWI1ly9Cul/A7PCJyWUhduaKXctlRVWhOMQyzLtMynca7smJDRQkRss5AQOwB8uQ7wzt3VrafXoxB8+2U7ADzq5vXAER0vNQ3AIn6ODaggUiv+viNQvDQUpjpTCF9JD3fzxilDYvCsiu5L8xTKE9eETJ8hZCmWVIn+FYJ95bjAUT+pn/1rV/wHh5a7INEc/CeOGqSAIgB+Vsh9/3TuaTRpCmOTaGOqpmngT3Aq5emfYO0DMgX125YhJcwt3s6hBks/g1qI9V2jhxYT/rdtXXdGFzGEQj47zabLfJ/iLjAH2hvKL3iw9mFMwazNvYTNG0b01YCab9ZUNxaS+mRMviQq1BCHTsGv89rfBoBR306s64bWcvwCB6XBtPJ1TsylmamqhMeU8aLJfyPYHpH490FrbE3wwDTg462/dNLhtUMEts3tXXDcE5w9/2uEx6CsrcuH6JMznuFKuOP52fDP3roMTenovgCxQoUGBWwbRhscSsu4r9kCjH8uLXgQiOaz2sT8ULUe4PJ4lTiCUeJoXwXQZv4I+TL5ck4gfsq/6D6cmDZfLuTOzi7IQKnrs6viEkuI909ThD7/2mczbKvU52n3F2mxbDssX51yhjzmVS5Gf630zcos/NNLQM+e4kFxmKRXwlZtr/UZBhgQIFChDcPh5XlBV3LcjiRCj/y42RCfqba/w2KVDAVKjK+yUsn29A2QfvINNKcGnlQQky5P9cN4/vmpTbFjK85wiU/KEdL1CNMLLiHik/lwDibuE6gXcTKu8AlP8Z/L1Pqt2mfFGtnItRZ/ktQzqCjt/mEewmPbFHy/Aao2rvEtyJWKBAgQIFYGl4STLj4XdukjFh0cxf2YYQIbTwuBupspzvBzI47qZlaP9nwiqhGzU5WhEtoYYbd8rLdsP3q/Xp6ETI4UmjsrTzLtCKw3ccHwxewucghGFvd3n2+bGLfHUo1SyU/6LelknHfyzvkyLIMil3gdVByjnJUIEMS4VlWKBAgQJJNFt3Zu1hUZTb+a8HOflQoE3WH5QwlSpJJVqe5F1wiTBtpAoLjvHiith0Pyzup4QwIKb7SGL5cmTFg5kUP9/zKe8iOXTaDlbtjamsyE7gDQWdXuiXkIdy6ag7/wYa5f63HLSPQMvQdH4EMsxpGdKC9i9F2XcpyLBAgQIF4thC3BQld3Ka9vUJZcmttKMTMVIE4XBDSnyprdJtUw2UN8/xlOz3NZHhIch/TUK5U2kn3pVx+zmsvkR6XYRplN3vGrzjbGOAy6TcEt6LZUh/p/Fds7R6lfPT/JYh6oSWYdneOZdVXKBAgQKzGqUaL9htvKPjWSbTPrzlvZLpfRrhnhPLsASCbP69Yl9j0I1bXAHHhVYbHRDHyZAOd+X9ZZNyp7JX9i+NHegAIITy051HjIs4HHdPhlWVzjtIv1CW3bGX9LZMWv8B0nldmCLbaQu0wY97IkM5Z+juOv0eaAoUKFBgEGCCMCIiEyJy12rvDCORmd46hD9be0TCrH0IcfUba0iipu0mzrjRV6lyH25LGDz4HN9EYtqH4PvuDrgTgrSDQ9HniceJ6QCXg+m1I+8y6QKxDI9M3JEoG2h4JrMny/BisQwLMixQoECBNjBrN0JpBp5YxFrjQdDDW28w5lGIsvtFKOea9polHsilM+lmZRz4Jl2RUMTczML7uDopdx6FMJ1TAzdxAMmUDmh1YbsJN/9U3HONoaWN83tTAQuWNT3rxL10ZBFahpZ/QuJaKC6T8iB+buffkWXovVnbrgUKFChQIISq3RcQEwiKXgfiLtsqzreg4E+DnAnleiE+rwZp/g6fF4Csfh7+9hOjYr9LwvN7uvOJlLGcM/SchGUol1M6Sd+h7YTW3bB4twjKVHF3guXYusSaRsQlm8eyfzHXvYmdUBnbCWT9A6Sfz20aZf4+tNC/I9ZgBPFo0SsZ8pnRrhvXA02BAgWmCnx9RSchamJrGC7pzmAXaANZ5nTXtJKh/X18t16WLkVAKFT2FP4dfS/uzNzbEfaXhmk3zgwG7tjem3jXqLxlyC/9QfvASrzK4L1uEcrOxxB/rTZ8N5Hdp+7TIOULUbZjjDyX/MZBt0qq9j2kdzPKmm+JlMJlUss7IrGBhu8PeXGx5a/rYZn0IqNSe3NBhgUKzFKI83GHevdyjPvfQRdfYpRr3wx/LZAJm+/xEhDEw6jEnfBfgwyp5OlpXadoEwJFTWVNYpTlPnwnV4dwmdQZa1HEtH6q9e43V8SFaSv34MlziTzIr9w/5SYflpdEKw4AYNGW7JNg3Y3Lkm8ayKWatc/h8xRYy7cIEUY+TvOIbKCBZRif2anxLQ3T+zmeEZOVHM8plmH9SjzfmwZrmZSOj93DUK+/RtnPTIhJl3ehX0e2F99lK17x0xQun5yL9P4Hk6QhSb8XiF9g91cdyobfvM8lVgIKFMgDHk0znQtkJY46KBLLfwaT9a+HoQqkBt8LUsHHybBMJ9EaMmRFc3MMlS1Jj8JdnOJr1L0NCvx4OZ5B56+0nJp3oUao0PNMbFk1jfBgfvwYhlmbh3weyU2KIogry6jyDPfhu0tQF7/E3+fgec41Su63YPHSw/vpk98rD8rMvQmyVnbj5l0ejYTLpJZ3XPI+Q/c16OQ9kqF/BdLBJKdNG8xYoLzV+snBpAptE5eF+/K5VkgwFd4C3xwmr4hTd/86Y9hZJOn3Aqv+abH4dflQxDm+/zTG3n+GMQoUyIdhb25w7VWzHqBO8+8LQxVIjybrQdmnQNGsT5CeCAa4yXdR9mehaN+Lz3eAKHaV5TirthAEqIy5stzX3RqZ62wDpbFGGq2lIdsIyafiXZdY4qTH+dGVj+ZaTmyWyWXgmMjSr7sOeW9IfC8k2Ic8F4AMlfdZY3RJYwPNCO+sAwHnJkNMWEyPN2m8se2EZEYD/bHd9U/sh5YbEqL7xb60QSRsV9O9Gv14R0k/L+ikQTnHSTvo8olEVlC8I8JYMxPckcwzwvMG6mLX2YI56Ee8BeRbiZWjJOaIYxBahy19DGODk/wCPcCEiV1x+W7tGyCfg4zy2B6o2J1F+H5xCA20VZ8OuctyVwb/pBRZOnV+mjibSG8zVv3RvirHSWGaU5EuRN4Z+snOvh2sRC6p5T2uIUoYlqEo9UHdTTrghFh1lqCM93ZdOZCJi3sMYjRWZjY26IKQR5tM+2SU8TcYn/fIOK2kvOG/QG/gZN9094WO48W8vKP1Bnw+IBcstEOptq1Mrpr7l7zGWlEQYk9Qzogxz97a2HrxZtoLgPsJXmZr+k+0NGRXQUOX3R9OHsUghlHuav2RvliK0yGBZXh04uootezVqP8z8pMhBoXyL8OgetNge6AZcEI0nY91tQ4pzE/8245Vw5gbD3K/nXsN5Npg93dYPlG0IMSN5elpU4GMffsy1PtVqO8H8RmsSPEVlXL/0tEnM11T0gFIcI9rILLatWIN9Ot+YagCA4GyfbhR9Z6ZbMi0oiBl5wgjfjtF6b0WOsXD0pF0cWaKLNiXS7+HGnPf1XASwLsNuQGjF8uQy6RcQh54d2xpCdE5WpbxRbikHxOJ26YeqSxaXgdA5P3k+PXBe9ceQKKWd7hNeTZbjJy8KXu1ocb2CWNuPIyO+9IvpZyst7DupB4LQpxy8AJq1rVsiIn1W+kjXmdC5GuR6vK5GDOfkT7Mvmz5j4EM357qFp4CMwhbLnoxOsM9kx0gtbDTuE9LJ4iTIm/jrmC2VJ3I5y5tKkWUDTp8cMNHo8xVWMo8rpLXxVtgjVwRkOELM2f5LTdSEqLsVoY1V/XekJBRzwRZHoVwT7bUZ2CV/Ra/LzUse0EiHt+58vLmtDuNdeAZMOWekSg721151+P7P7SQIsMp57Nh7I0Hy/ODuo2VLSpfQYhTD06IdatbaQgxAvvtqPsm6cvcz1FgQFFeBsU0ke0YBkU6C5Re2f1JYsDOW/WvcnUUlwy4EUcXd7pFljPd+0CG70nc/ThkV/A9Lwzu4Z2hdykU+RsG951hM1ISYieo2gEgmsdblExAQKfIxqWpgGXXUL4HE8THNlLul4T4mpdSo982NjoT4umJPlug/+hEiJZ3DyzAV4QhC2wSKLuHwELKcJdiKMEMaj1mRBcndp+Wd/l/xjxaCu6fROk0z8ynSxrvYQ40KsuGEopFOfsgzHW9kaH/G9TbgtlDhkQfCNGEFa7cJ/SESM9K9tZhyP5CuR+VIxXxPGX51DkUv+3fsj2e/cN0r+l41EP57zBMOrzwTk6Kf4Ysvet2gJb9t+H31jjKOxOfwVEPWth01m/6p+LzKu0YkfHl3o8yno5wP5M0KkhD1Q+WNNqBGz0q9reNCs+N8qA4341BlHs50jrPKHkfCEO2x/CyVxlm7TDk+QvJN5BTID9GGo0+YPqvl01AlegdHPNxLkNe35SlxGbQ8UXZ/aqsJEXhLfdK5PUzPFvgbasrlvyVMVQbNUznB8jnVygPD8SHaTF/pFepXYhyHC2epnTgznJlnxbW6zmI11r/FDoRKTlnT9a/tJffOHQ/4r8W7XpWWD8x8VlX3w5DdQDGGy3KCuq5wnfa8efw0F7Oz+VChm7gNXoq0VaRnGRsGztvOw/Pbdq/wKS1UWeSj3uyUapPzUR18CA+Sq9Gx2x/U0Yn4cA1neuMuePDSKyxbDiCClbee4yKc2+gmKaJGKnoJD/3+/JOqnmDkokBqbyHUO58zxtYGuhQtYVIbRYsk8YxwIRoOZ9ueX/IMo+MH2qYYxNBeeJlEsJZL4TZDnRIEaTJvtKQoH5O1t73qbx9QouvKQ77DfokYdYr+O430leD3/nZTmJpSL4nShrNMO2KKFDFM8nus0KyLcJn9p6AorzKKLmHhTFbQeJSzrfC/Br5Mw1arYRyDsB3d+B/1GFTPvS+xaVqTrYJXkxA95IV51Z8v7Y1vP884twPcmjv4YUkbXlfQbg/QP4PEkxm4+lEErTtOsifQGg/apm00ipM1m/0d6so0Yvh80v93RmmwjPLQ6E+aIQRkXB/CUNpQCJcpozy2LUoC56FeWmehWkFjlsulhWQduDETLmacnjP4PnfKe86K873kM6fIPp8+JvpfCFMcRMHZ0zV8XT+TXXCSlXuXVB2X8IsJDZrpoLFLLLkvgm/3S3KRXtup0dh/kybt/2bztcw43pDsNQRGwhlZxuU8QxIvjOGFOn86JwlD2TYNMhmBdheA0iIFXc+0r4kJJhARHm5jyC/ZaJ8TEz64r9LmdCeyv18mEorGoTYFI/PAoupMyE2xWHfcU6QMCREvk9tLk83kXZxoeCbwGNZoji99YGC69S/8VswXp/B3zx60gqOnQqdLzSN1UB5/k4uC7BAbIFXlmSYeFjl3QwLZ3dYJHsiv9Upwj+F/vPlsBRJcI8Cw8jmF5aj0zOGImkK2Z4RphJACDFF/GYJ+tRdYSpxQmwSCac/drHI494NXq5w9+TEoCV+XJBWtU5ifAATlTPDVJKggxcz3KEcF5mY2J/EJ63A5zrmJXXlrsHEpfMKxCaD7dC4IyueyNVRKFKh6NDK+YMoqGbCkE5oL8Dn4cbIytWyhMUB3ry7q6tIBwniUllxp6PyLkGHGAMRmuHybdJyK9vfwKz4VsTtkQy5m7Q2ihRnmWUYYVAJ0Xsf+hysoliezI/PIg4rZBXk6y3Ki//zCE47DAIhWvbO+O2RjmSjE6krkIXptlplJESupGgnryBS5T7UUblGQitOvFD59wTl04SJi6Tp/tkoL90mLEkDoytM2Y2ri9dR5Dmfw7g9OUxp4xEid55W0KeUm/0SgiDvZ6Hn/jdMrQESYkWOjDTH24B2vD/9s0oeD4WpFjCGam9GxWffZDMpjCfEeA8q9tdoqOGW3Zc07836PENNbIfBvAqK6qdGGY02smKDKJ+OIormeTT+1Uj/G1AwbxPlUlqxhdYzTND5rkR58jnojiRQnJhlCRnOYgwoISrnE1qyo3/UCMr9pP49oneFMeTvEIZKYqoIkRM3y79YytixX+I3Ks5IpCz1BiGWam9E+e9sS6z8fnLiqfldlLK/Bml8OkwxAG+jUe6n9Mqe8eJl7jau+AzdwkSCcFxS1fkBpetI5VwclBnC+kzoBoiWwCGSv38f9EFwrId9MLI0JT1NnEiiMBSp53p+QpRn4FG3NvXBdpJnafMcFLrqNJveewshelwh0MfJJtwX8rUw5QKo7CVomNZt81kkGgDKu8uoOLfJOUWdVcXlg+3tV8Kq20oIkkTZTcorthECFEuwzbJlBYoweNdAxcy19NYyphXpnFBeanwEKc9SyzDCgBKi6X65RYnwtpdyTNFXaodqlR+/I1nqMFWEyDqgZyrTvRR5/FlfLlGqjxoV+1KE+y3kIsS5CuPpE5IGj02Z7mHa8gXEAusP+ZkHbGYofxz/Y1KoyYdKnpPXOHgBuYV21KYdCdMax9hyght5upEef2c4k++rEFdXFgmH75VzRViSBrbgxhF/fznvp2oPox4OkqM2kV4ojW9rlNzFXcjkMkmL/oq5EYh1WnF/hzLpw1uos7Jz5WT9czMQN6BEyEKI1Fd8r6rdfY/woxNPoc73xcRlLup0TPpvSzgRWH329WGqAXiUTNl/6Kizpb7Zb9kOTLtDWC7PFogApVj2lqHzZvN3qhMZJNIB7kEHvAkD9BRj69oWYUb9RdkZRwflnZF/gjwddIAey8+Oo7wLDaumJ/RZhwEkRN4owt1yiSU55g3hu5oI3FnMJbzmclHpK/+LYagkpooQuYTLa4N4ZMmCYtfmQaJyzpd333QxKBtdlr0alkDgyo0XTlPp6oiF35nOGY1LwdGuFc83lCas1BPqpVJrvE/kJhjLfl9bQhTS4m5OEItYPf7SgFSa6nYyvFhW1xtz7WGU49/CsofWXnNY+e6qsCRJlPd6Jep3N3HGHz9PHIG3+5Sdd2v7b5DuLRKOq0nbjr9a6lUt315P5lIv9xuV5fNl0s76l12yMXePWQiRriF15aIob7VhLdvZmHd4sBOeO+Irtb1adk1PigurfrfNJCxR3eMlaK+r2tY/SVTZ1xhzl6Iv0Ze1V0WenTyVrZM+WiACOozpvB2dqIfl05hIh2Mn8fhO4S58x91mZ4mS4uwu632BfMfBjTqmcwQ6x7VI72ak+yg+1+s7dw4JlMGFGLxmmOsmgEEkROcjLUuGgcK+C8+yOAyFGTqUAD0KNYdluUz3R0Zp39a7OaeMEGPoeA4RY6TdZdqmv6QtkfJ4RWJzG8CyKverWgUu5Ov9MgzZmRBJbnRTGCck5mW6H9amLf3AvRcK/r1h6ACW/7aWJWwJL233R+iENp5e0Ec7gT6fg0l4U7pSjjvCSxAa6HQOka7b6LyjHdISIuuq4n4pJOVWKTu3hiEb4MTHdKF/NeFp/Su7scGGhKjsq9vq6rLzGPRsg0BlnI+9tW15OEGat/hlYeACgsNRadstGzKsHnaf6oQdTTqbvNB/XDqd4oYXzN5SCzo2He/yGqgqZj/SoftYxuCOxOMNc/nrURObgGUYYRAJ0f9Ui+KmkuJZuGb3Wcr7REtYUfDO9VDYu4ahGtjohNjGUw2XNE3nQ20J0bIby3pxKP/d+rxYB+4lk0qwo4WIdi3Flg0j8E5XXdpSv97lYagGRhyFPFs9RImSdv+cqp/QH7Hp0gfx7YhL3YB43p2J9CbTlXzuMYbdchg7QEdC7OKpJi0h8t7ESu0WbT60xnjNXTPYBmUYDO1J67EwZBdCdNejnK27U7kE3YkQmycOBUIMocOMTDw6NZ5n0IDsJHlE2/i9CtKk82/LPyQ4trEpkSExYIQoZ9Ng3TWXl4pc917QohXTrOSjcmrO5c1UQpSridxzW6xdPguVmU7BEsrdU09aQkI3QgEHztXbEqKk/yykdWcqN3q0I0TeddoM9gPlXt2ilIOy3GKM1LYNQyZRXfUK5PU1WPsgPlie3GTXohti6U2mK2W/35hn7xymFGA6CHF44lVhPbQKly5lV34L5sjei5Y2jsWL0IkQg52prY7GeT67IMScCDrh+TPST2m/JOoc5eXLZA1/k8SAESKX9fnOuHlgR0uAJCfl/JcIlQLzj4eLRAhU8x5xphKi7C517mglE9Y5LAdl673R8B7Vtsua3gMoX6A4uxGi5bVu/c9KiOK4w7289Rn4fxtCLC2p4hkeRzmelrLoiKydRM/Iy9PjmA5CXABClPbXhfMeDkO1gl5mdGORwnOdXCkgOi+ZrjNGPEfCxVEQYo+orvpHmP124Pu0TUUOqrBTm94dhrmc25k3MaswjgEjROV/tK3CoCKwuFnBWxMK/uZhdE1YKivlfE9cYMUxYy3E8CB+cx1TwZl8X+fWw5BJ0GGFCUWtI1KeP+MGH2ImEiL3Gkje/F2r+IO4nAy1I7hBI0QuYbft3+4a2ZhFdCPEqutKuDgKQuwDOFDoH9B0b25ryg+SyACiMrQPRud+zeBf39QrBo0QebZQQ1hZJVDCD4IE/DDlADOVEE3nrSjboy11HCjxh9GGB4Yhk+BGtEq7eCBYjgNiphEi3+Wb9p3tjyygbkfHH0f5v4SJ7fvx/Hdpn3HQCJGk1JYQMcnbKtzxWhDiRoZYi3YdDRC6Y9JU6owWdBzZ4eZfhYG/oNhiHGGACJHb2JV7ageFkU14PqsUnvGL0IkQLdTTjjGn9hGmhxAXwaK9p5VMqGDl4PaHwpBJWM4eWgXOdJR7OxT8XhJuxhFibVTbDgw7Ur9Tbpzh5ISbqHim2XRar/saRELkbf3t+jeXTCMUhDgDwPdsvAfMdI9Fp39mIIiRnTywCNcaIxjAi/b7e62Hm00WA0SIwbnCp7TKLI9Iv3COClMPwJsldEcD5B2lezGUa+vdd9NCiHJ12cWtqzRUsO4GELveHV2nTTXKu8YYWrqdhJtJhMjrwnT3WUq7u/eiP+0m4SLIzlP7On34HITIM4/tkIUQdYQu4q5peYYAc9AfR9quxKXdVFMQ4jSDboO2rm8GRfoZNB4U1AwkRnZudlzxku+/OzhcWxBhKwaIEM3ax9oqCw505qeTdkqAhGW635f+HKHsjxum5myrKEvM0OktJQ4Sibg801mVWQkRz6boaEKjkDkZVe4H9fkgHttQBx6gb5cX/fRObtKYQYRI14x02h8P0wh3g4SJIyDEa1rTlTZMT4jBs96P/sBbfPRIS4g8dmG2OXZB8lHuT8KQDdDa5W7adv3VqheEOKNBN2w77PlSDMbDoCgeD5SPtoGmTzjQOSCVew069gI55FxYhB0wSISocddGoRKvekca1erfyNGZuIgHEPuTWrdYgYK9I3GAnAf7g6vCNOHxPOVmi5JeVPj+SqNoOhLi3q3hRbnRkXabW/2F3DTxmDctKrPJPyuJlfcZ6tqWccr2WWHImUWIdIxR1RB/EO9G6bNx8B5Grd9WacNWQhxa+u9ot9bwFHq8srz2fj3TEiIP5pvOV1qeNZIyLN1m8GC+nuAg6BfR3ZpEQYgzGLuhotmY4iC4diYGxHMBMbWp/H4KOz0HIAc9Byev/tl68WbGtiDq5oFTQIMBIUS+1+Hdf83lZJ7i7MEZD0O2ghMj070stIqSIum5jTvhlLM9lOUV2rAUKlJeBCsHr8dW4tmfaqvE2hFixdsd5XlMT7ryPDyn9mVj4cTWhjW+Kyymt0o8uqxT7t3accXvTCdpJVa8mrZdmQc31JRr/xWGnFmEyGVpHSEGZXkIfzc2QnHCYzpe2+dsayF20E1clq+4JwWXEaxYKPUYIS0hEkP+a/VhKe56hA/8rBJynZN7urZPBLJafNlGKAhxQMCG2nb8pbIWLjeE26tFuUwSZNsGTyGIyzSEADnoIKZzsShtNR74fMzqEm6Tx6AQYu1QlAXp6vJwTpQD++3xIoQ5UrvcSIXFa48iBO6zjmmvyCAkCL7PCawJfRhKO0KUJT58r6vzSISE/CeRz8MI+/Ew5otQBwdqSUji0L2Xeyee9Xx8/h7f8RhKazjmW62fE6YZYGYR4jZog3vbk4PzGPrDmdJOyrkB3+mfsx0hij9T59yWcsSFdRkc3XkUz3l8GDMbIdJAMO1z2ufjbjAq9l1Ik2PkboOevPThQJ5O0hl7QYiDhhfmiOPaHUCO7BiiBGpcWv0tKv9udILAikwjPIekaqvRKeim6UR00LfLchjTZccoSLAHDAghWu5n2hKacr8UhmoPc/lhWsfJQRnPSZRR+f+lX9LsJBrF1I4QCbO+r3bzTkJEya5Fv2/shC2NVUHavwvGhS4Ob5bgjfZy63vr74FCvMUoe8lNHTOJEImS95Yu9UPyZ7na32zTjhCJ+fV53esfQl/MlvfzMFY2QiS4stFp4kMJyFf/G4Wvo1qWiQtCHHxw0LEhuTzAOxJ5lGMhXz7XN5PG2HbZqyeFM35+z4Oq3NnKOFyXl2WDYim0fxgAQuRApuswnSIK3ut9LAzZHhUoe3lv1FRGKgjl3W2U3OVhyMhCOb2rIhOhIoQVZ/FIhOb5LfckpNjq+MF03gmie7olTkKYdhMhEiWXt9FD6bVRbu1Ewvv3G8Pu/mFKDcw0QhRXdZgE6xV+q+jqIiLEiqvxWcv3q/barukLIaIvRMhKiMTQxHbayVxXQZrV+hpjnsbZeEGIBQpMBQaAEOlv0/SuarWKRAltaNn5qUNwsP0GveLEd8r+fBgyAN9Jysxdq3ACCdJ6Aor7AJRhZYvSk+f3ftx2Alep7d1ZUcrztRIiUR17A8Jcl460IUJS/q1Ib88whSRmGiES9CLV7fnY56r1exD/sNawbDv3MfTvfcMU45gj7vB05Y9LPwiR7c+8eBVXxwlQTBiu7DxobLVX4+qpOApCLFBgKrDkrwyrfrIoQg6WuAROz7sToho7GEpjjRBWPH6gXE83TJ83iOQH/ZJyaYyKNpG+KKZLZdNMGijvc8GtJrE0KLI8Wv9yGKoB+gFV3m2iaCUslQ9E/sZ3Fec6PNsuErbq7y31FU9Xnt//GTRRcLRBh7K9DHmsbdQd048E/9OHp+kkb7cPMEeUosn35wgTjy9ljKcBBanCc4qHG3py5uYUy3tfa/2Q3HwuGx4XhmxgpL6o5ZkpslRcbyVEbmbhvYeT9RmF5//+LXJRbjPKyxTiPRg8X/hMk8+HuKZ9M4hDydnFiv1USx+0/GdQR8eGqbVi3piJ+l3T6FtR2qFYdS5nNnbjkhBJovE8RFhP9TaEKEB7LX8FyvJt9Kv1ibziz0PhEqnlHdrxVRBXy6zadS1jIpB1Bu/CbAYJsbnuI2Ebb7vnq8OQBQpswuC7WG404BJ1XMr7vFKO1nQD/YHKYG+OjzSZdq/HXjbH4NeWL0w/7RI6lQifSZdO812CAqQrnlBg2VQ87ij9OeQXUIq2PC+PeUQEw3pqLiP/53K/bsl0EsiD5eISnnIcKOdvQiEejRn7J0EEO0kazVdaJYC6XXhwWP/2LkbZRXz3h0jrSKQ1Jt/LtT8oazcwH139UGTXdhNoVfJWh+awLDM3J7UAZeX3zfVE4a5d/TnhOVL+sv06PN++Qm7K/RbIb5X49SSRc78C4/L/5nQpQRu0Q5A+3VMO+e9G3R2DeuPNGkfg772CC4J3aZxTZT668lN0bv2awQucOV4m29s+Fvldhmf6kkyumA6Jq/u+CFi4u/9zSxki4c7/VszRho2Em7YKFChQIAVIXH8jCo33hk4NXiSKkCKTCCr6TJgTxEcZ+Tl15dxIwPNEzzclz4b6TtT/VNdf+DzSr/A55fkVKFCgQIECBQoUKFCgQIECBQoUKFCgQIECBQoUKFCgwHTAMP5/R7syH4QSercAAAAASUVORK5CYII=;" parent="1" vertex="1">
                    <mxGeometry x="45" y="80" width="161.43" height="40" as="geometry"/>
                </mxCell>
                <mxCell id="lJub9xmhn4Uc3zOFS6u6-2" value="" style="shape=image;verticalLabelPosition=bottom;labelBackgroundColor=default;verticalAlign=top;aspect=fixed;imageAspect=0;image=data:image/png,iVBORw0KGgoAAAANSUhEUgAAAKwAAAA7CAYAAADmUmEjAAAAAXNSR0IArs4c6QAAAARnQU1BAACxjwv8YQUAAAAJcEhZcwAADsMAAA7DAcdvqGQAABRoSURBVHhe7ZwJXE9Z/8ftsg3JoMFkX8u+TwlFzZBWkhbVaC9LEUVIxt6iGlERY5tMqIwoM2NtnkHDM8UkY/mPQeuvUskwdJ7P93bv7/lFZmwPv/nP+bxe59X53XPuWe55n+/5nnMvdbi4uLi4uLi4uLi4uLi4uLi4uLi4uLi4uLi4uLi4lErXsh8NuXz5kQ5jrK54SZlVd+3atXNOnDjRZ/369ZqbN2+edfDgwVZiWg1t27bNLCYmxoj6tXHjxsZRUVFWW7du1d2/f7/h4sWLV+C3r5iV6++kPXH3Zn/mX3g/YW/ZotQvWDPxsrKq3qBBgwoBm8Xw4cPtPvnkk8wFCxboWlpa9gG86pcuXWqEeOfIyEiNOXPmfDd06ND4KVOm9F22bFlPW1vbr4KDg+8YGBjcVlNT+1VbW/tWfHx8k9mzZ2siveOxY8darlu3rv3u3bt7JyQk9LCxsekCsDUAfAOxbi5l0L6dpV52JnefOFrkP17qU5Aat6nEnLEqNTFZ2VRv4MCBxUZGRiHdu3eP1NHROb506dIUNze3X6dOnfrvpKSkEEBcEB0d/UtQUFDRiBEjbltZWVW6urp+j3yfA+Jf8PsW7u8HEA3mzp0bOnPmTObs7HzFy8trHWA+vWXLFoZ7K83MzHJmzZp1B/GxYt1cyiAC1t7szmMbo7tspomMeTvJfo9YW5xyeH/5eCV0E+oOGDCgDMDljx49unjcuHHn5s+fvwu/j6mrqz9KSUkpGjJkSP7ChQuj3d3dz06YMOEqAP0SVvm3adOmfaWnp3fCxMTkO39//6EAVQWQF5ubm2+wsLC40KVLl6TBgwffQNqy8ePHy1BmGPJmTZ48ebZYN5cySA7slDuMgtWku8xpeimb7VhwM3KdbFt+/qPRYlZlUD0tLS1ZXFzcAlNT03mwmszY2LiqRYsWZ1RVVStOnjz5Tf/+/f+F5V6G5ZwB1EhPT89VsMp3AGAC3IN/aWhonIJ7kArQ98Ki/oJyLgLm4q5dux4EvL8C8N4TJ04ss7a2zoCVrQTUHmLdXMqgp4GlYG1Ef/OZl30ZW+Caf31rZMk8WFtV8ZZ3qXr29vbhO3bsIAs5Ej7nBhcXl+CRI0euBGjR33//fRgs8MZJkyb5w48Nw5JuHxYWZu7k5BTs6+vr6efnZ2NoaOgGIBM9PDz2REREOMPq7oPfuwFgm8EyB8O96IRrlbDO5wBraHh4eG+xbi5lUG3ASmHGZPw1zmOzLPNY8Iqiozdv/t7nTboJVVVVjZOT7zQVf76Qrl692hhtqL9v3776x48fb4B4Qyz/zW/evKmSkZHRFBa2GTZRwnX8boi/DeAqNEb+RpSfrunq6qqQS0DlAPYmYv56VDYgbQ5XoBB+7wyxSi5l0p8BKwXbKTK4CHlHT6Td/ylhd2li/DaZFgb4lcHFvSpRUdmdY2KyUw8cuL5DvKwUopOGyspKa/HnOxGeT9MVK1b0wKawH1YFOuX4MDExsYWY/M/WiwFbxOZ+mns0cV9ZxhzHMrY2oPxh2AqZz9lTv/ckyyQW9UJKT89tGxr60+L58zNK9fWPMA+PE95i0gspNjZWIzQ0tPPLhOjo6C7p6eltxSKUVvQsV69ePRYuSSz863twSxjcF4YN5k24ORvFbP9svQywyQnlAFbGLA3vMBer4qpA34LsrZuLPc6cKfzL2Y/BUI+MvOzm5HT81CefHP1DR+cQGzs2qWrevHQfMcuLqC528Md69OiRjnDmRUK3bt3OYNnPCAwMXCWWobRKS0vTHTZsWDGiTDHUr1+fDR48OBtxrlcBlnxbCvamxczdpqg0wDsvNf3bSltAWesh+6FDNwz8/H5It5z27cPx41OZrm4yYE1m48YlvxSwKL8uICyn6MuEdu3aMS8vrwOIK7XQxt34I2/3Bx98wIYOHcq0tLTYvHnzOLCkL+MArOldAHu3Vlgp1AaslGY9ORfW9h6bbV9wb5V/YXROTlkfsWhh+V+16kK8uXmazNAwjY0ZkyyH9W0C27ZtW+bp6an0wBobG9/GH6nN97A5dLW3t9eaPHnysM8++0xTyPRP142cRyPiNpekudvmPrQzyQOEuXIYpfBnwFKoPgbLZTPNcpmPU54sLfn+2gMHrrlZWX3zq6FhKuA8XAPUVwUWqmtpaRmgo6OzcsyYMUEUxo4duxTLZT4tm0hnTZo0KR4yZEgcri+jdG1t7SAM+Br4spbVRSivPv744yL8Efqhrq6e4erq2ktI4Kopcva/P15huGROXqrrDFmFo0UJLOd/Le5fASsFAtfBrIhtCanICgm5eGiM7pFaQZXCKwBbqzDQWY0aNRIGunv37g9XrlzpWJ1SLerfjz/++MGSJUsGwIppUfDw8NDavn17B7LaYjZB2JGrAHJVCoi/h/T6lGfbtm2ddu7c2YuO0z799NPWlG5hYdEaeYRNJ/I0dXZ2/tDQ0JCO3ZrFxMS0pg90nJychPrQRi3c1x87/65Il3+wQ0dtU6dObamvr98SmywZLgn9aN++/QVra+thdExHddFRnHADRHWlpKR0pO8gpLKxggzYsGFDJ6Q1FLMJog9/qJ1Uhpubm3CWjjz1z549297b27sTHfc5Ojq2gJ/fmtpAaWKe5p9//nknqsPIyKg/yuir+KER0ltu2rSprZ+fX3+qf/r06f337NnTDtff3ttRVNZgR1Spu59X/iVX65I/rI3yBQhfCljzAhYbXpEZGnYxWRfA1gaqFP4XwGJHzQDW8uoUoU/NZsyYYW9mZpaBnbbgD/br14/BSjMM0E92dnaeOTk5HcTsdWCVzVq1anWwWbNmXyP/mtu3b4+ysbHxwG79CnbwvwD6HtjBp6qoqBzU0ND4Oi4urjOgHD1ixIgYbAgv+vj4DEPwweYpxdTU9I+PPvpIqK9Pnz4MUFD4DW3ZR4NM9cXGxvbq27dvVPPmzZNhVR/iktCPpk2bFrdp0+YY2nJAVVV1P1aRSZQfE00Nvm4Q2paNtj7R1NQUyh83bhz1KRNgrU9KSupHeUnIb4C2pKG8gwMHDkzA81AFoOaAMAP3HKKPhjApQlHPYfjMX7i4uBgvWrTICtqJVepn1FFFdSA8xDNIxgQY7eDgoI82fIk+f4d+CPWTr436TwFyXbHqt6fMcw+6xoaXRC6ZW1g4ayqsrZHsbwPsqFGjGCCSA4vBie3Vq5eQVluAJWO2trYxGEjhBQYG1b9u3bpCGoC8Bat3uXXr1o/J5YD1zA4ICBiFgRTS69WrRwOV2Llz5zz6TQMXHBw8FYDsBfA16lEMVH63bt0yMQG0tmzZMqxjx47Xa8snBdTzGBbWE3C3gKWMe++992rNRwFgMtR/LjU1dQh+15k1a5YrtYvSMCmeDB8+PAH+cSn9RjwXq0y/Ll26/Jv6gj4+RF/ufPjhh/clF0sxtGjRglawbMB7r7Z0Cpgwv+FZtkP87QqVNj5yqFJnzdKiz91sCyq8HArSkr6ic9i/D7ALFy4cA6tVQdcp0GCSBQZ4TE1NTf6QYXWfYGkzQ7wOBnuhBCwNijQwNKDY8GUHBgbKgaXQoEEDeZysKPzOWb6+vrsBAaOJAgvFYJHhGumyli1byvMSdLBI0enp6Zpo842uXbuS/y1PpzgmDAFCcD8KDw9f5O7uvkxxIlCfYR0ZfHYGCym/Tm2GhTyJeA1gKSi2l855sayPR1t/fB6ALxvQx0fnzp2zRfzdCOA2iNlYbHToq9Lg5ISyrNkOxW8Q2ENVHh6n54tVvbKeByzgOS5B8P7777OZM2ce3b179yjAqYnl2kVKo7/m5uYr6R4svQskYBUDHeAD1uWYBNqKwEoBA1UJH/XEkSNHRl26dMkJPqwPNnuDsXQOghsxCP5oL0C3BRb9iXTPgAEDfsLzHTZo0KDuAHoglmjB8lHARLsE/9QE1zXhRmihvP4AP0tKh9XHMxzrA/93IFyM3nBb5gFs+eTE/aUoWxurh6MisBSofx06dCjBanHkwYMHXTBZflIElp7HlClTGNq8D+3fhklc436CHq7OQzzrTYsXL96L9gkrDIWGDRs+joqKmoP4uxM6LmwsMi/8HhDoW1g40+TuY1vjvGfAfRFgqzdhhzG7U5iDw4l7a9b8W1uo5DX0PGAxoBek6xjAW4BVn66T0KdWeOhVFKUwbdq0FFxTg0vgowgsrM+jOXPmbKMNGn6T1Uax/wUW5VcBmBvw+0bQNwv0rBDo24RaNx8A9pJUPkC6LpPJ5F/DoR/yUwL4k2ex4ekhJEBoQy/FemEdM+Pj41sLiaKwUmyVLDBWk/sRERGmcInsFYGFP8xgdc+FhobSdyHCBo1WDglYuAMlISEhgVlZWcIGDqE5nim9PpfSGVyZaNpwwZ0R7kf5y+FuCOkELO73ouvvXOd+eOB8+rtKn62RxV+62+Red51RCmhzBVD/ClgCVUcnmenpHWYmJqmyoKALCfn5lR+JRb+WngcsLNcFPEDpQd+DpUv09/ffBAu7BWEbbRQojQI2IUcxOG0UgaUlHRbKFXG5ngYWy3qaNHCKQln1S0tLWwNkNSngmgomzmVyLygLNlvXioqKRlbfUacOXBVFYM9jw9RTSICwOvQmdwZRIcA6b4e/3ERIFKWnpxcluTqNGzeuoA0UrL6DBCzVC0v8hZBZQYrAos85mZmZQ6tT6tShUwRY2C2ICunYaDFMgkFCoihYdn/ybxEVgMXGTDmA3b/7QXzwCsZCVxbF799T7hGxTvaNh50sz9G8RLC2zwN2zJgkgJqKh3XmkZvbqcN79lyjj8Pf2D89eR6wWN7lwP5VqA1YGmjyARGX62lgAWCwdLQliX7DInqjXUk9e/aUB/i4B+C73kMW4d6XAdbZ2bk3nTggKgT4rs8Ai3ZFkauAaK3AUr/wTJ5xwRSBRTtz4IMOq06pBhYTOxpRIR0bNZrEfw9gD35ZFj/303JmY1TIvOzzciLWlmw8crAsZP3ywjOediVP6BisJrApglU1Nv6uCsv/8fDwLHfGquRHSG9KbwJY+JtpAPb9lwUWYIUpAktWFFZoMcCplMp5XngXwNKmUsisoP/XwPo4lwnW1HZKAXOaLnuyaHbe5fgvyjfvii1buNCj8KLz9DIWHVaRuSH4QrK+/rfMxeX03YiIrNUnT97uJBbzxvUiLgEAqHBycjoJAPdjEA8qBiy3h/GQlwK2FmSBXgfYxMTEoZ07d/4FUSGdTgPQPpoQwkZGAorCm3YJsGmrASzazoGVgCWflf7amxYxB7O80jUBRTmnv72/NvizoqX795Zf2X/g+jfLlmXs27nzRq83ufzXpucBi8GRA9upU6f/S0tLMyALiNBKDPRmhwLFm4v3yI+1XgVY+JFjsfG5hSijDRAmSWZQUFAX+hYgISGha8eOHa9K5b+shaUjMkSFAJ98u4WFRQ1gYdmjpKMz7PQrAgMDObCKwEobLWujXGZvRhb3bmVwkGx/+smyMSkpVxvTx9Dirf9TPQ/YqVOnZqioqAjXW7VqdX/ixIluALMeBp82SQ3WrFnTEjvertjdG50/f16d7nldYGHVx8C6/YqoYF0DAgLO0nXUK/yrhrZt277SpsvX17cjLKzccmtoaFStWrXKeseOHWo+Pj7NkpOTLeEyyF/tqqqqlt+4ccPAzs6OA6sIrGKwNrrLnKeXsmXzi74Wb3kreh6wAGkVoJGfe9JBvJmZ2S1AtQvLdpyVlZVw2D9kyJDKFStWTKZ7XhfY8PDw8e3bt/8NUQEQAFowcuTIyAkTJhzCMl4mtZPCywAL2JvOmDFjkzQBKdDZMqwsw3XhREO6ThMCz+Ei4jVeHHBgnwH2DoAtYUu9898qsPr6+nJg6dglJiZGABaD/AGgOKo4yLUFDBKDNRY+mAFUcmAJZviONYCFNRtL3yEgKoR27do9venqhqX7BwmApwOdVyqUfy0vL08O7Pjx4+XAotzzgE0OLAlL/DBMzjx6Y4efzw3du3cv9/f3N0CcfF9X6gddp3qpf3RdUZi82ZLVrw1YbETlwNJbtenTp9cAtkOHDv7S+S8Bu2HDBg7sn2nBggVZZPVgCRisEjt27JgALMnPz6+dgYFBAixLOb3+pGWaoKHzyt69ezMMRjEA+3Hu3LnCxyXW1tZLaXNDlsTBwYGtX7++BrCYDGO9vb3JUkmveaMAu/CFk6R58+aNBNQ/AwShLvoeFxBV6urqXnB0dDyFpfsP+hAGlvFmQUGBjngbTYYiOgmgcrFJu4iJ0FdMkgsWXEdbW3sfJuZ9WjHIslEdsMg0ASo1NTUPLV++3BoTR3hxQe2nflB/qFxYx6VCQQpC+7NpElKbAOO1zMzMUWKS8LWXjY3Ndlq5qAw3Nzd6cVADWHNzc396/Ux50LbHu3bteu3X7W9EygpsbGzsOCzVpoDOOCQkxCI9Pb3GP83G4LWCdRoHC2aCzZexurq6MSyJMXbtpoBrHPLTf0kkbLrWrl3bY/78+cZUFnxci71793YWChEFX7FNRESEOaVjopgsWbKEvrp65q1WVFTUAEwiY8BqDIhMpk2bpv/zzz/3rKqq0sB9k1Gv6bp16/Rv3bolf1u1devWjzEZTFC/KdqrC+smtOlpnT59mj59nIgJIO8PJpAprKnelStX2ojZBFH7qR/UXuoX9U9MkgsbQj2qk9qEdD0AK/8n/bR6hIaGDqR0KoP+2Tza1VJMFoQ8PWEYLKh89G0KDEZXMendKnHf/XgfpwqlA5aLq1alJFZs9nUvZnbGBczG6Nl/mcCB5VI6JX1VttDPKz/HyTL3sfXk/BrWlgPLpZQiPyxstWzlsvkleZ4z7zOrSdUfwHBguZRW2KQ0yjpfMXF1QH60j0tJ8UzT6g+7ObBcSi2Aq5KWVD5t42rZWXeboirn6fc4sFzKr9u3q9R2x5ZaL/MpvAofN0W8zMWl3Dp5srLTD+mVVuJPLi4uLi4uLi4uLi4uLi4uLi4uLi4uLi4uLi4uLi4urnetOnX+A8cwbUGWTWHdAAAAAElFTkSuQmCC;" parent="1" vertex="1">
                    <mxGeometry x="885" y="180" width="145.76" height="50" as="geometry"/>
                </mxCell>
                <mxCell id="lJub9xmhn4Uc3zOFS6u6-4" value="各設定登録" style="rounded=0;whiteSpace=wrap;html=1;align=left;labelPosition=center;verticalLabelPosition=middle;verticalAlign=top;" parent="1" vertex="1">
                    <mxGeometry x="65" y="140" width="550" height="190" as="geometry"/>
                </mxCell>
                <mxCell id="lJub9xmhn4Uc3zOFS6u6-6" value="Workspace管理" style="rounded=0;whiteSpace=wrap;html=1;dashed=1;align=left;verticalAlign=top;" parent="1" vertex="1">
                    <mxGeometry x="85" y="185" width="160" height="125" as="geometry"/>
                </mxCell>
                <mxCell id="lJub9xmhn4Uc3zOFS6u6-8" value="Policy管理" style="rounded=0;whiteSpace=wrap;html=1;dashed=1;align=left;verticalAlign=top;" parent="1" vertex="1">
                    <mxGeometry x="260" y="185" width="160" height="125" as="geometry"/>
                </mxCell>
                <mxCell id="lJub9xmhn4Uc3zOFS6u6-9" value="Policy set管理" style="rounded=0;whiteSpace=wrap;html=1;dashed=1;align=left;verticalAlign=top;" parent="1" vertex="1">
                    <mxGeometry x="435" y="185" width="160" height="125" as="geometry"/>
                </mxCell>
                <mxCell id="lJub9xmhn4Uc3zOFS6u6-10" value="Terraform&lt;br style=&quot;font-size: 10px;&quot;&gt;Policy File ①" style="shape=document;whiteSpace=wrap;html=1;boundedLbl=1;fontSize=10;" parent="1" vertex="1">
                    <mxGeometry x="266" y="230" width="70" height="50" as="geometry"/>
                </mxCell>
                <mxCell id="lJub9xmhn4Uc3zOFS6u6-11" value="Terraform&lt;br style=&quot;font-size: 10px;&quot;&gt;Policy File ②" style="shape=document;whiteSpace=wrap;html=1;boundedLbl=1;fontSize=10;" parent="1" vertex="1">
                    <mxGeometry x="341" y="230" width="70" height="50" as="geometry"/>
                </mxCell>
                <mxCell id="lJub9xmhn4Uc3zOFS6u6-12" value="Workspace①" style="rounded=1;whiteSpace=wrap;html=1;" parent="1" vertex="1">
                    <mxGeometry x="105" y="220" width="120" height="30" as="geometry"/>
                </mxCell>
                <mxCell id="lJub9xmhn4Uc3zOFS6u6-13" value="Workspace②" style="rounded=1;whiteSpace=wrap;html=1;" parent="1" vertex="1">
                    <mxGeometry x="105" y="260" width="120" height="30" as="geometry"/>
                </mxCell>
                <mxCell id="lJub9xmhn4Uc3zOFS6u6-14" value="Policy set①" style="rounded=0;whiteSpace=wrap;html=1;" parent="1" vertex="1">
                    <mxGeometry x="460" y="220" width="110" height="30" as="geometry"/>
                </mxCell>
                <mxCell id="lJub9xmhn4Uc3zOFS6u6-15" value="Policy set②" style="rounded=0;whiteSpace=wrap;html=1;" parent="1" vertex="1">
                    <mxGeometry x="460" y="260" width="110" height="30" as="geometry"/>
                </mxCell>
                <mxCell id="lJub9xmhn4Uc3zOFS6u6-83" value="Organization" style="rounded=0;whiteSpace=wrap;html=1;align=center;labelPosition=center;verticalLabelPosition=middle;verticalAlign=top;" parent="1" vertex="1">
                    <mxGeometry x="903.94" y="232.5" width="211.06" height="220" as="geometry"/>
                </mxCell>
                <mxCell id="lJub9xmhn4Uc3zOFS6u6-84" value="Workspace①" style="rounded=1;whiteSpace=wrap;html=1;" parent="1" vertex="1">
                    <mxGeometry x="930" y="280" width="165" height="30" as="geometry"/>
                </mxCell>
                <mxCell id="lJub9xmhn4Uc3zOFS6u6-85" value="Policy set①" style="rounded=0;whiteSpace=wrap;html=1;verticalAlign=top;" parent="1" vertex="1">
                    <mxGeometry x="930" y="330" width="165" height="100" as="geometry"/>
                </mxCell>
                <mxCell id="lJub9xmhn4Uc3zOFS6u6-86" value="Terraform&lt;br style=&quot;font-size: 7px;&quot;&gt;Policy File ①" style="shape=document;whiteSpace=wrap;html=1;boundedLbl=1;fontSize=7;" parent="1" vertex="1">
                    <mxGeometry x="935" y="367" width="70" height="46.5" as="geometry"/>
                </mxCell>
                <mxCell id="lJub9xmhn4Uc3zOFS6u6-89" value="Terraform&lt;br style=&quot;font-size: 8px;&quot;&gt;Policy File ②" style="shape=document;whiteSpace=wrap;html=1;boundedLbl=1;fontSize=8;" parent="1" vertex="1">
                    <mxGeometry x="1015" y="365.25" width="70" height="50" as="geometry"/>
                </mxCell>
                <mxCell id="lJub9xmhn4Uc3zOFS6u6-90" value="" style="endArrow=oval;startArrow=oval;html=1;rounded=0;startFill=1;endFill=1;strokeWidth=2;entryX=0.5;entryY=1;entryDx=0;entryDy=0;exitX=0.5;exitY=0;exitDx=0;exitDy=0;" parent="1" source="lJub9xmhn4Uc3zOFS6u6-85" target="lJub9xmhn4Uc3zOFS6u6-84" edge="1">
                    <mxGeometry width="50" height="50" relative="1" as="geometry">
                        <mxPoint x="473" y="510" as="sourcePoint"/>
                        <mxPoint x="473" y="490" as="targetPoint"/>
                    </mxGeometry>
                </mxCell>
                <mxCell id="lJub9xmhn4Uc3zOFS6u6-91" value="" style="html=1;shadow=0;dashed=0;align=center;verticalAlign=middle;shape=mxgraph.arrows2.arrow;dy=0.6;dx=40;notch=0;" parent="1" vertex="1">
                    <mxGeometry x="785" y="300" width="100" height="40" as="geometry"/>
                </mxCell>
                <mxCell id="lJub9xmhn4Uc3zOFS6u6-5" value="紐付設定" style="rounded=0;whiteSpace=wrap;html=1;align=left;verticalAlign=top;" parent="1" vertex="1">
                    <mxGeometry x="65" y="374.63" width="550" height="190.37" as="geometry"/>
                </mxCell>
                <mxCell id="lJub9xmhn4Uc3zOFS6u6-16" value="Policy set-Pplicy紐付管理" style="rounded=0;whiteSpace=wrap;html=1;dashed=1;align=left;verticalAlign=top;" parent="1" vertex="1">
                    <mxGeometry x="85" y="414" width="230" height="141" as="geometry"/>
                </mxCell>
                <mxCell id="lJub9xmhn4Uc3zOFS6u6-17" value="Policy set①" style="rounded=0;whiteSpace=wrap;html=1;" parent="1" vertex="1">
                    <mxGeometry x="95" y="450" width="110" height="30" as="geometry"/>
                </mxCell>
                <mxCell id="lJub9xmhn4Uc3zOFS6u6-18" value="Terraform&lt;br style=&quot;font-size: 10px;&quot;&gt;Policy File ①" style="shape=document;whiteSpace=wrap;html=1;boundedLbl=1;fontSize=10;" parent="1" vertex="1">
                    <mxGeometry x="235" y="440" width="70" height="50" as="geometry"/>
                </mxCell>
                <mxCell id="lJub9xmhn4Uc3zOFS6u6-19" value="Terraform&lt;br style=&quot;font-size: 10px;&quot;&gt;Policy File ②" style="shape=document;whiteSpace=wrap;html=1;boundedLbl=1;fontSize=10;" parent="1" vertex="1">
                    <mxGeometry x="235" y="500" width="70" height="50" as="geometry"/>
                </mxCell>
                <mxCell id="lJub9xmhn4Uc3zOFS6u6-22" value="" style="endArrow=oval;startArrow=oval;html=1;rounded=0;startFill=1;endFill=1;strokeWidth=2;exitX=1;exitY=0.5;exitDx=0;exitDy=0;entryX=0;entryY=0.5;entryDx=0;entryDy=0;" parent="1" source="lJub9xmhn4Uc3zOFS6u6-17" target="lJub9xmhn4Uc3zOFS6u6-18" edge="1">
                    <mxGeometry width="50" height="50" relative="1" as="geometry">
                        <mxPoint x="285" y="464" as="sourcePoint"/>
                        <mxPoint x="335" y="414" as="targetPoint"/>
                    </mxGeometry>
                </mxCell>
                <mxCell id="lJub9xmhn4Uc3zOFS6u6-23" value="" style="endArrow=oval;startArrow=oval;html=1;rounded=0;startFill=1;endFill=1;strokeWidth=2;exitX=1;exitY=0.5;exitDx=0;exitDy=0;entryX=0;entryY=0.5;entryDx=0;entryDy=0;" parent="1" source="lJub9xmhn4Uc3zOFS6u6-17" target="lJub9xmhn4Uc3zOFS6u6-19" edge="1">
                    <mxGeometry width="50" height="50" relative="1" as="geometry">
                        <mxPoint x="215" y="475" as="sourcePoint"/>
                        <mxPoint x="245" y="475" as="targetPoint"/>
                    </mxGeometry>
                </mxCell>
                <mxCell id="lJub9xmhn4Uc3zOFS6u6-24" value="Policy set-Workspace紐付管理" style="rounded=0;whiteSpace=wrap;html=1;dashed=1;align=left;verticalAlign=top;" parent="1" vertex="1">
                    <mxGeometry x="354" y="414" width="221" height="141" as="geometry"/>
                </mxCell>
                <mxCell id="lJub9xmhn4Uc3zOFS6u6-25" value="Policy set①" style="rounded=0;whiteSpace=wrap;html=1;" parent="1" vertex="1">
                    <mxGeometry x="408" y="450" width="110" height="30" as="geometry"/>
                </mxCell>
                <mxCell id="lJub9xmhn4Uc3zOFS6u6-26" value="Workspace①" style="rounded=1;whiteSpace=wrap;html=1;" parent="1" vertex="1">
                    <mxGeometry x="403" y="500" width="120" height="30" as="geometry"/>
                </mxCell>
                <mxCell id="lJub9xmhn4Uc3zOFS6u6-21" value="" style="endArrow=oval;startArrow=oval;html=1;rounded=0;startFill=1;endFill=1;strokeWidth=2;entryX=0.5;entryY=1;entryDx=0;entryDy=0;exitX=0.5;exitY=0;exitDx=0;exitDy=0;" parent="1" source="lJub9xmhn4Uc3zOFS6u6-26" target="lJub9xmhn4Uc3zOFS6u6-25" edge="1">
                    <mxGeometry width="50" height="50" relative="1" as="geometry">
                        <mxPoint x="477" y="530" as="sourcePoint"/>
                        <mxPoint x="527" y="480" as="targetPoint"/>
                    </mxGeometry>
                </mxCell>
                <mxCell id="lJub9xmhn4Uc3zOFS6u6-27" value="" style="curved=1;endArrow=classic;html=1;rounded=0;entryX=0;entryY=0.5;entryDx=0;entryDy=0;" parent="1" target="lJub9xmhn4Uc3zOFS6u6-25" edge="1">
                    <mxGeometry width="50" height="50" relative="1" as="geometry">
                        <mxPoint x="315" y="500" as="sourcePoint"/>
                        <mxPoint x="365" y="450" as="targetPoint"/>
                        <Array as="points">
                            <mxPoint x="365" y="500"/>
                            <mxPoint x="315" y="450"/>
                        </Array>
                    </mxGeometry>
                </mxCell>
                <mxCell id="lJub9xmhn4Uc3zOFS6u6-28" value="Movement&lt;br&gt;&lt;br&gt;" style="ellipse;whiteSpace=wrap;html=1;verticalAlign=middle;fontSize=17;" parent="1" vertex="1">
                    <mxGeometry x="635" y="265" width="170" height="110" as="geometry"/>
                </mxCell>
                <mxCell id="lJub9xmhn4Uc3zOFS6u6-29" value="Workspace①" style="rounded=1;whiteSpace=wrap;html=1;" parent="1" vertex="1">
                    <mxGeometry x="660" y="327.5" width="120" height="27.5" as="geometry"/>
                </mxCell>
                <mxCell id="lJub9xmhn4Uc3zOFS6u6-32" value="" style="curved=1;endArrow=classic;html=1;rounded=0;exitX=1;exitY=0.652;exitDx=0;exitDy=0;exitPerimeter=0;entryX=0.5;entryY=1;entryDx=0;entryDy=0;" parent="1" source="lJub9xmhn4Uc3zOFS6u6-24" target="lJub9xmhn4Uc3zOFS6u6-29" edge="1">
                    <mxGeometry width="50" height="50" relative="1" as="geometry">
                        <mxPoint x="660" y="470" as="sourcePoint"/>
                        <mxPoint x="710" y="420" as="targetPoint"/>
                        <Array as="points">
                            <mxPoint x="710" y="470"/>
                        </Array>
                    </mxGeometry>
                </mxCell>
            </root>
        </mxGraphModel>
    </diagram>
</mxfile>